<?xml version="1.0" encoding="iso-8859-1"?>
<!-- Generator: Adobe Illustrator 30.0.0, SVG Export Plug-In . SVG Version: 9.03 Build 0)  -->
<svg version="1.1" id="Layer_1" xmlns="http://www.w3.org/2000/svg" xmlns:xlink="http://www.w3.org/1999/xlink" x="0px" y="0px"
	 viewBox="0 0 1500 1500" style="enable-background:new 0 0 1500 1500;" xml:space="preserve">
<g>
	<path style="fill:#B68E31;" d="M271.72,1048.73c-0.76-0.76-1.31-1.36-1.65-1.81c-0.35-0.45-0.55-0.88-0.62-1.29
		c-0.07-0.41,0-0.89,0.21-1.45c0.21-0.55,0.55-1.31,1.03-2.27c1.03-2.41,1.74-4.89,2.12-7.44c0.38-2.55,0.19-5.13-0.57-7.75
		c-2.48-8.34-7.92-13.47-16.33-15.4c-2.34-0.55-4.72-0.95-7.13-1.19c-2.41-0.24-4.82-0.36-7.23-0.36
		c-5.58-0.14-11.13-0.21-16.64-0.21c-5.51,0-11.09,0.04-16.74,0.1c-1.59,0-3.15,0.1-4.7,0.31c-1.55,0.21-3.05,0.38-4.49,0.52
		c-0.14,0.62-0.26,2.76-0.36,6.41c-0.1,3.65-0.19,8.04-0.26,13.18c-0.07,5.13-0.1,10.66-0.1,16.59c0,5.93,0.02,11.47,0.05,16.64
		c0.03,5.17,0.09,9.58,0.15,13.23c0.07,3.65,0.17,5.82,0.31,6.51h4.96c9.02,0,18.01,0,26.97,0c8.95,0,17.94,0,26.97,0
		c0.76,0,1.5,0,2.22,0s1.46-0.03,2.22-0.1c1.45-0.21,2.84-0.55,4.19-1.03c1.34-0.48,2.57-1.24,3.67-2.27
		c2.27-2.13,4.05-4.53,5.32-7.18c1.27-2.65,2-5.37,2.17-8.16c0.17-2.79-0.21-5.53-1.14-8.21
		C275.39,1053.38,273.85,1050.94,271.72,1048.73z M217.62,1029.67c0.03-1.27,0.05-2.7,0.05-4.29c1.31-0.14,2.55-0.33,3.72-0.57
		c1.17-0.24,2.34-0.36,3.51-0.36c6.27-0.14,12.67-0.14,19.22,0c1.17,0,2.33,0.07,3.46,0.21c1.14,0.14,2.29,0.35,3.46,0.62
		c2.62,0.48,4.1,2.03,4.44,4.65c0.21,1.59,0.09,2.84-0.36,3.77c-0.45,0.93-1.39,1.67-2.84,2.22c-0.9,0.41-1.84,0.76-2.84,1.03
		c-1,0.28-2.02,0.45-3.05,0.52c-3.72,0.14-7.42,0.26-11.11,0.36c-3.69,0.1-7.39,0.22-11.11,0.36c-0.62,0-1.38-0.07-2.27-0.21
		c-1.52-0.27-2.57-0.71-3.15-1.29c-0.59-0.58-0.95-1.67-1.09-3.25C217.61,1032.2,217.59,1030.94,217.62,1029.67z M258.75,1066.76
		c-1,1.14-2.36,1.88-4.08,2.22c-1.24,0.21-2.46,0.4-3.67,0.57c-1.21,0.17-2.43,0.26-3.67,0.26c-4.07,0-8.1,0-12.09,0
		c-4,0-8.03,0-12.09,0c-0.9,0-1.77-0.07-2.64-0.21c-0.86-0.14-1.77-0.27-2.74-0.41c-0.62-2.55-1.02-4.92-1.19-7.13
		c-0.17-2.2,0.15-4.41,0.98-6.61c0.21-0.07,0.38-0.16,0.52-0.26c0.14-0.1,0.27-0.16,0.41-0.16c5.37,0,10.71-0.02,16.02-0.05
		c5.3-0.03,10.64-0.02,16.02,0.05c1.58,0,3.17,0.24,4.75,0.72c1.65,0.48,2.93,1.36,3.82,2.64c0.89,1.27,1.31,2.7,1.24,4.29
		C260.28,1064.27,259.75,1065.63,258.75,1066.76z"/>
	<path style="fill:#B68E31;" d="M387.82,1033.33c-1.31-3.31-3-6.34-5.06-9.09c-2.07-2.75-4.55-5.23-7.44-7.44
		c-2.41-1.86-4.93-3.41-7.54-4.65c-2.62-1.24-5.48-2.14-8.58-2.69c-2.69-0.48-5.31-0.81-7.85-0.98c-2.55-0.17-5.2,0.19-7.96,1.09
		c-5.37,1.79-10.13,4.24-14.26,7.34c-2.83,2.14-5.25,4.58-7.29,7.34c-2.03,2.76-3.63,5.89-4.8,9.4c-1.1,3.38-1.72,6.72-1.86,10.02
		c-0.14,3.31,0.14,6.68,0.83,10.13c0.27,1.79,0.67,3.5,1.19,5.12c0.52,1.62,1.29,3.15,2.32,4.6c0.76,1.03,1.5,2.05,2.22,3.05
		c0.72,1,1.5,1.98,2.32,2.95c2.41,3.03,5.15,5.58,8.22,7.65c3.06,2.07,6.56,3.51,10.49,4.34c2.07,0.41,4.06,0.81,5.99,1.19
		c1.92,0.38,3.77,0.39,5.56,0.05c1.75,0.07,3.19,0.08,4.31,0.05c1.14-0.03,2.12-0.12,2.95-0.26c0.83-0.14,1.62-0.36,2.38-0.67
		c0.76-0.31,1.69-0.74,2.79-1.29c1.31-0.76,2.63-1.51,3.98-2.27c1.34-0.76,2.63-1.58,3.88-2.48c3.51-2.82,6.54-5.94,9.09-9.35
		c2.55-3.41,4.17-7.46,4.86-12.14c0.21-1.24,0.38-2.46,0.52-3.67c0.14-1.2,0.31-2.43,0.52-3.67c0.41-2.34,0.45-4.65,0.1-6.92
		C389.34,1037.78,388.72,1035.54,387.82,1033.33z M367.78,1058.44c-1.65,2.07-3.56,3.7-5.74,4.91c-2.17,1.21-4.44,1.95-6.82,2.22
		c-2.38,0.28-4.8,0.12-7.29-0.46c-2.48-0.59-4.86-1.64-7.13-3.15c-2.62-1.65-4.58-3.55-5.89-5.68c-1.31-2.13-2.24-4.61-2.79-7.44
		c-0.83-3.99-0.62-7.66,0.62-11c1.24-3.34,3.58-6.11,7.03-8.32c2.34-1.45,4.55-2.53,6.61-3.25c2.07-0.72,4.13-1.05,6.2-0.98
		c2.07,0.07,4.2,0.53,6.41,1.39c2.2,0.86,4.61,2.12,7.23,3.77c1.86,1.24,3.13,2.86,3.82,4.86c0.69,2,1.24,4.07,1.65,6.2
		c0.14,0.62,0.21,1.26,0.21,1.91c0,0.66,0.03,1.33,0.1,2.02C372.08,1050.38,370.67,1054.72,367.78,1058.44z"/>
	<path style="fill:#B68E31;" d="M498.66,1080.45c-3.24-4.68-6.48-9.35-9.71-14c-3.24-4.65-6.51-9.32-9.82-14
		c-0.35-0.48-0.64-0.98-0.88-1.5c-0.24-0.52-0.53-1.02-0.88-1.5c-0.55-0.89-0.77-1.77-0.67-2.64c0.1-0.86,0.43-1.74,0.98-2.63
		c2-3.03,3.94-6.05,5.84-9.04c1.89-3,3.81-6.01,5.74-9.04c1.65-2.55,3.32-5.1,5.01-7.65c1.69-2.55,3.43-5.17,5.22-7.85
		c-0.55,0-1.02-0.03-1.4-0.1c-0.38-0.07-0.77-0.1-1.19-0.1c-2.48,0-4.96,0.02-7.44,0.05c-2.48,0.04-4.96-0.12-7.44-0.46
		c-1.72-0.21-3.07-0.02-4.03,0.57c-0.97,0.59-1.86,1.53-2.69,2.84c-1.45,2.27-2.95,4.51-4.5,6.72c-1.55,2.21-3.08,4.44-4.6,6.72
		c-0.9,1.31-1.81,2.62-2.74,3.93c-0.93,1.31-1.91,2.72-2.94,4.24c-0.62-0.83-1.17-1.58-1.65-2.27c-0.48-0.69-0.93-1.34-1.34-1.96
		c-2.21-3.17-4.38-6.3-6.51-9.4c-2.14-3.1-4.27-6.23-6.41-9.4c-0.48-0.76-1-1.33-1.55-1.71c-0.55-0.38-1.31-0.53-2.27-0.46
		c-2.69,0.14-5.32,0.26-7.91,0.36c-2.58,0.1-5.22,0.19-7.91,0.26c-0.55,0.07-1.08,0.14-1.6,0.21c-0.52,0.07-1.09,0.1-1.71,0.1
		c2.2,3.38,4.34,6.65,6.41,9.82c2.07,3.17,4.13,6.34,6.2,9.51c1.51,2.34,3.01,4.69,4.5,7.03c1.48,2.34,3.05,4.62,4.7,6.82
		c1.38,1.72,2.07,3.22,2.07,4.5c0,1.28-0.59,2.77-1.76,4.5c-3.17,4.48-6.3,8.96-9.4,13.43c-3.1,4.48-6.2,8.96-9.3,13.43
		c-0.35,0.48-0.64,0.98-0.88,1.5c-0.24,0.52-0.53,1.12-0.88,1.81c3.44,0,6.73-0.02,9.87-0.05c3.13-0.03,6.29,0.02,9.46,0.16
		c1.65,0.07,3-0.22,4.03-0.88c1.03-0.65,1.93-1.64,2.69-2.95c1.1-2,2.26-3.96,3.46-5.89c1.2-1.93,2.39-3.86,3.56-5.79
		c0.76-1.17,1.57-2.33,2.43-3.46c0.86-1.14,1.95-2.15,3.25-3.05c0.48,0.69,0.93,1.34,1.34,1.96c0.41,0.62,0.83,1.24,1.24,1.86
		c1.58,2.41,3.15,4.8,4.7,7.18c1.55,2.38,3.05,4.77,4.5,7.18c0.83,1.31,1.77,2.27,2.84,2.89c1.07,0.62,2.39,0.93,3.98,0.93
		c2.62-0.14,5.2-0.19,7.75-0.16c2.55,0.04,5.1,0.05,7.65,0.05c0.55-0.07,1.12-0.12,1.71-0.16c0.58-0.03,1.26-0.08,2.01-0.15
		c-0.28-0.55-0.48-1-0.62-1.34C499.04,1081.04,498.87,1080.73,498.66,1080.45z"/>
	<path style="fill:#B68E31;" d="M554.52,1009.88c-1-0.21-2.19-0.31-3.57-0.31c-1.38,0-3.07,0.1-5.06,0.31
		c-2,0.21-4.51,0.52-7.54,0.93v5.27c0,5.44-0.02,10.83-0.05,16.17c-0.04,5.34-0.09,10.73-0.15,16.17c0,4.96-0.07,9.9-0.21,14.83
		c-0.14,4.93-0.21,9.87-0.21,14.83c-0.07,0.76-0.1,1.55-0.1,2.38c0,0.83,0.45,1.65,1.34,2.48c2.82-0.07,5.72-0.03,8.68,0.1
		c2.96,0.14,6.06-0.03,9.3-0.52c-0.21-6.06-0.26-12.09-0.16-18.08c0.1-5.99,0.26-11.99,0.47-17.98c0.21-5.99,0.36-11.95,0.46-17.88
		c0.1-5.92,0.05-11.85-0.16-17.77C556.54,1010.39,555.52,1010.08,554.52,1009.88z"/>
	<path style="fill:#B68E31;" d="M682.33,1012.67c-0.07-0.69-0.1-1.48-0.1-2.38c-3.17-0.62-6.27-0.72-9.3-0.31
		c-3.03,0.41-6.17,0.66-9.4,0.72v4.75c-0.07,5.31-0.1,10.56-0.1,15.76c0,5.2-0.04,10.42-0.1,15.66c0,0.83-0.02,1.45-0.05,1.86
		c-0.04,0.41-0.17,0.76-0.41,1.03c-0.24,0.28-0.6,0.52-1.08,0.72c-0.48,0.21-1.17,0.48-2.07,0.83v-0.1
		c-0.21-0.14-0.41-0.29-0.62-0.47c-0.21-0.17-0.41-0.36-0.62-0.57c-3.24-3.86-6.44-7.66-9.61-11.42c-3.17-3.75-6.34-7.56-9.51-11.42
		c-1.86-2.27-3.69-4.55-5.48-6.82c-1.79-2.27-3.62-4.55-5.48-6.82c-0.55-0.76-1.14-1.46-1.76-2.12c-0.62-0.65-1.48-1.09-2.58-1.29
		c-3.38-0.69-6.72-0.88-10.02-0.57c-3.31,0.31-6.68,0.64-10.13,0.98c-0.07,0.83-0.12,1.62-0.15,2.38c-0.04,0.76-0.05,1.48-0.05,2.17
		c-0.07,2.62-0.1,5.24-0.1,7.85c0,2.62,0,5.24,0,7.85c-0.07,7.85-0.16,15.66-0.26,23.41c-0.1,7.75-0.19,15.55-0.26,23.41
		c0,0.83,0.07,1.65,0.21,2.48c0.14,0.83,0.27,1.69,0.41,2.58c3.1,0,6.08,0.04,8.94,0.1c2.86,0.07,5.77,0.04,8.73-0.1
		c0.14-1.1,0.26-2.08,0.36-2.95c0.1-0.86,0.15-1.74,0.15-2.63c0.07-4.27,0.12-8.49,0.16-12.66c0.03-4.17,0.12-8.39,0.26-12.66
		c0.07-2.41,0.21-4.8,0.41-7.18c0.21-2.38,0.38-4.74,0.52-7.08c1.51-0.34,2.69-0.17,3.51,0.52c0.83,0.69,1.58,1.45,2.27,2.27
		c2.96,3.79,5.91,7.53,8.84,11.21c2.93,3.69,5.84,7.39,8.73,11.11c2.27,2.89,4.53,5.77,6.77,8.63c2.24,2.86,4.46,5.77,6.67,8.73
		c0.76,0.97,1.62,1.69,2.58,2.17c0.96,0.48,2.1,0.69,3.41,0.62c1.93-0.07,3.82-0.08,5.68-0.05c1.86,0.04,3.75,0.02,5.68-0.05
		c1.86-0.07,3.05-0.36,3.56-0.88c0.52-0.52,0.78-1.7,0.78-3.56c0.14-7.23,0.27-14.43,0.41-21.6c0.14-7.16,0.27-14.36,0.41-21.6
		c0-3.44,0-6.87,0-10.28c0-3.41-0.04-6.84-0.1-10.28C682.44,1014.01,682.4,1013.36,682.33,1012.67z"/>
	<path style="fill:#B68E31;" d="M796.29,1063.4c0-1.65-0.02-3.27-0.05-4.86c-0.04-1.58-0.09-3.17-0.15-4.75
		c-0.07-1.31-0.31-2.17-0.72-2.58c-0.41-0.41-1.24-0.65-2.48-0.72c-1.86,0-3.72,0.02-5.58,0.05c-1.86,0.04-3.72,0.09-5.58,0.15
		c-0.48,0.9-0.91,1.71-1.29,2.43c-0.38,0.72-0.74,1.47-1.09,2.22c-0.97,2.07-2.29,3.88-3.98,5.43c-1.69,1.55-3.58,2.77-5.68,3.67
		c-2.1,0.9-4.34,1.45-6.72,1.65c-2.38,0.21-4.7,0-6.98-0.62c-2.69-0.69-5.22-1.95-7.6-3.77c-2.38-1.82-4.29-4.01-5.73-6.56
		c-1.45-2.55-2.31-5.36-2.58-8.42c-0.28-3.07,0.34-6.18,1.86-9.35c1.31-2.82,2.95-5.34,4.91-7.54c1.96-2.2,4.53-3.68,7.7-4.44
		c4.82-1.24,9.33-1.31,13.54-0.21c4.2,1.1,7.99,3.65,11.37,7.65c0.27,0.35,0.55,0.67,0.83,0.98c0.27,0.31,0.59,0.64,0.93,0.98
		c2.27-0.83,4.53-1.58,6.77-2.27c2.24-0.69,4.43-1.76,6.56-3.2v-0.1c-1.03-2.48-2.29-4.7-3.77-6.67c-1.48-1.96-3.22-3.74-5.22-5.32
		c-4.13-3.17-8.51-5.48-13.12-6.92c-4.62-1.45-9.51-2.2-14.67-2.27c-0.83-0.07-1.55,0-2.17,0.21c-4.69,1.52-9.08,3.41-13.18,5.68
		c-4.1,2.27-7.73,5.41-10.9,9.4c-2.83,3.72-4.82,7.61-5.99,11.68c-1.17,4.07-1.59,8.34-1.24,12.81c0.27,3.93,1.07,7.65,2.38,11.16
		c1.31,3.51,3.34,6.82,6.1,9.92c3.99,4.48,8.35,7.92,13.07,10.33c4.72,2.41,10.18,3.38,16.38,2.89c1.24-0.14,2.41-0.14,3.51,0
		c2.69,0.35,5.37-0.14,8.06-1.45c1.58-0.76,3.17-1.53,4.75-2.32c1.58-0.79,3.24-1.64,4.96-2.53c0.41,0.48,0.83,0.97,1.24,1.45
		c0.41,0.48,0.79,1,1.14,1.55c1.38,2.21,2.86,3.55,4.44,4.03c1.58,0.48,3.68,0.24,6.3-0.72c0.07-0.41,0.12-0.84,0.15-1.29
		c0.03-0.45,0.05-0.88,0.05-1.29c-0.07-2.69-0.15-5.37-0.26-8.06C796.44,1068.78,796.36,1066.09,796.29,1063.4z"/>
	<path style="fill:#B68E31;" d="M961.62,1061.03c-2.14-0.83-4.25-1.65-6.36-2.48c-2.1-0.83-4.22-1.65-6.36-2.48
		c-1.65,2.14-3.24,3.91-4.75,5.32c-1.52,1.41-3.08,2.53-4.7,3.36c-1.62,0.83-3.36,1.36-5.22,1.6c-1.86,0.24-3.93,0.26-6.2,0.05
		c-2.83-0.21-5.43-0.96-7.8-2.27c-2.38-1.31-4.43-2.95-6.15-4.91c-1.72-1.96-3.05-4.1-3.98-6.41c-0.93-2.31-1.33-4.6-1.19-6.87
		c0.14-4.2,1.19-7.85,3.15-10.95c1.96-3.1,4.63-5.82,8.01-8.16c1.38-0.89,2.89-1.41,4.55-1.55c3.17-0.34,6.27-0.31,9.3,0.1
		c3.03,0.41,5.89,1.72,8.58,3.93c0.21,0.21,0.43,0.38,0.67,0.52c0.24,0.14,0.46,0.31,0.67,0.52c0.83,0.62,1.64,0.93,2.43,0.93
		c0.79,0,1.64-0.24,2.53-0.72c1.52-0.83,3.07-1.62,4.65-2.38c1.58-0.76,3.13-1.55,4.65-2.38c0.34-0.21,0.69-0.45,1.03-0.72
		c0.34-0.27,0.76-0.58,1.24-0.93c-2.48-2.34-4.86-4.61-7.13-6.82c-2.27-2.2-4.93-4.03-7.96-5.48c-2.27-1.03-4.58-1.72-6.92-2.07
		c-2.34-0.34-4.69-0.76-7.03-1.24c-1.24-0.21-2.46-0.4-3.67-0.57c-1.21-0.17-2.43-0.02-3.67,0.46c-2.21,0.83-4.38,1.65-6.51,2.48
		c-2.14,0.83-4.24,1.86-6.3,3.1c-4.41,2.69-8.08,5.86-11.01,9.51c-2.93,3.65-5.01,8.03-6.25,13.12c-1.17,4.75-1.45,9.47-0.83,14.16
		c0.48,3.38,1.26,6.55,2.32,9.51c1.07,2.96,2.88,5.65,5.43,8.06c0.07,0.07,0.24,0.31,0.52,0.72c7.65,9.65,17.7,14.22,30.17,13.74
		c0.55,0,1.07,0.02,1.55,0.05c0.48,0.04,1,0.02,1.55-0.05c1.17-0.14,2.34-0.26,3.51-0.36c1.17-0.1,2.27-0.36,3.31-0.77
		c1.86-0.83,3.68-1.72,5.48-2.69c1.79-0.96,3.55-2.03,5.27-3.2c2.14-1.45,4.06-3.1,5.79-4.96c1.72-1.86,3.31-3.86,4.75-5.99
		c0.62-0.96,0.84-1.72,0.67-2.27C963.26,1062.03,962.66,1061.51,961.62,1061.03z"/>
	<path style="fill:#B68E31;" d="M1050.85,1066.71c-3.86,0.07-7.72,0.15-11.57,0.26c-3.86,0.1-7.75,0.19-11.68,0.26
		c-0.83,0-1.65-0.12-2.48-0.36c-0.83-0.24-1.76-0.47-2.79-0.67c-0.07-9.44-0.14-18.72-0.21-27.85c-0.07-9.13-0.14-18.34-0.21-27.64
		c-3.1-0.27-6.13-0.57-9.09-0.88c-2.96-0.31-6.1,0.02-9.4,0.98v4.86c0,6.2-0.02,12.38-0.05,18.55c-0.04,6.17-0.09,12.35-0.16,18.55
		c0,4.27-0.07,8.51-0.21,12.71c-0.14,4.2-0.24,8.44-0.31,12.71c0,0.76,0.05,1.52,0.16,2.27c0.1,0.76,0.19,1.62,0.26,2.58
		c0.89,0,1.69,0,2.38,0c0.69,0,1.38,0,2.07,0c5.44-0.14,10.85-0.27,16.22-0.41c5.37-0.14,10.78-0.24,16.22-0.31
		c3.65-0.07,7.29-0.12,10.9-0.15c3.62-0.03,7.29-0.09,11.01-0.16c0.76,0,1.51-0.02,2.27-0.05c0.76-0.03,1.51-0.08,2.27-0.15v-14.67
		c-2.76-0.07-5.41-0.16-7.96-0.26C1055.95,1066.76,1053.4,1066.71,1050.85,1066.71z"/>
	<path style="fill:#B68E31;" d="M1171.76,1012.98c0-0.27-0.05-0.57-0.16-0.88c-0.1-0.31-0.19-0.71-0.26-1.19
		c-3.17-0.41-6.3-0.69-9.4-0.83c-3.1-0.14-6.27,0.04-9.51,0.52v5.27c0,5.37,0,10.7,0,15.96c0,5.27-0.07,10.59-0.21,15.96
		c-0.07,2.14-0.26,4.29-0.57,6.46c-0.31,2.17-0.64,4.32-0.98,6.46c-0.35,2.76-1.9,4.51-4.65,5.27c-2.62,0.69-5.22,1.12-7.8,1.29
		c-2.58,0.17-5.18-0.19-7.8-1.08c-0.83-0.27-1.65-0.69-2.48-1.24c-0.83-0.55-1.48-1.2-1.96-1.96c-0.69-1.1-1.29-2.27-1.81-3.51
		c-0.52-1.24-0.81-2.48-0.88-3.72c-0.28-3.58-0.45-7.15-0.52-10.69c-0.07-3.55-0.14-7.11-0.21-10.7c0-3.44,0.05-6.87,0.16-10.28
		s0.19-6.84,0.26-10.28c0-0.55-0.05-1.09-0.16-1.6s-0.19-1.05-0.26-1.6c-1.45-0.14-3.05-0.26-4.8-0.36c-1.76-0.1-3.51-0.14-5.27-0.1
		c-1.76,0.04-3.41,0.12-4.96,0.26c-1.55,0.14-2.84,0.35-3.88,0.62c-0.07,0.9-0.15,1.79-0.26,2.69c-0.1,0.9-0.16,1.83-0.16,2.79
		c-0.07,6.48-0.09,12.9-0.05,19.27c0.03,6.37-0.02,12.76-0.15,19.17c-0.07,2.82,0.27,5.51,1.03,8.06c0.76,2.55,1.62,5.06,2.58,7.54
		c0.48,1.45,1.24,2.65,2.27,3.62c2.2,2.07,4.55,3.84,7.03,5.32c2.48,1.48,5.23,2.36,8.27,2.64c6.34,0.55,12.61,0.83,18.81,0.83
		c2.41-0.07,4.81-0.29,7.18-0.67c2.38-0.38,4.7-1.05,6.97-2.02c3.93-1.65,7.13-3.86,9.61-6.61c2.48-2.75,3.82-6.41,4.03-10.95
		c0.27-4.13,0.55-8.27,0.83-12.4c0.27-4.13,0.45-8.27,0.52-12.4c0.07-4.2,0.03-8.35-0.1-12.45
		C1171.93,1021.33,1171.83,1017.18,1171.76,1012.98z"/>
	<path style="fill:#B68E31;" d="M1290.56,1048.73c-0.76-0.76-1.31-1.36-1.65-1.81c-0.35-0.45-0.55-0.88-0.62-1.29
		c-0.07-0.41,0-0.89,0.21-1.45c0.21-0.55,0.55-1.31,1.03-2.27c1.03-2.41,1.74-4.89,2.12-7.44c0.38-2.55,0.19-5.13-0.57-7.75
		c-2.48-8.34-7.92-13.47-16.33-15.4c-2.34-0.55-4.72-0.95-7.13-1.19c-2.41-0.24-4.82-0.36-7.23-0.36
		c-5.58-0.14-11.13-0.21-16.64-0.21c-5.51,0-11.09,0.04-16.74,0.1c-1.59,0-3.15,0.1-4.7,0.31s-3.05,0.38-4.5,0.52
		c-0.14,0.62-0.26,2.76-0.36,6.41c-0.1,3.65-0.19,8.04-0.26,13.18c-0.07,5.13-0.1,10.66-0.1,16.59c0,5.93,0.02,11.47,0.05,16.64
		c0.03,5.17,0.09,9.58,0.16,13.23c0.07,3.65,0.17,5.82,0.31,6.51h4.96c9.02,0,18.01,0,26.97,0c8.95,0,17.94,0,26.97,0
		c0.76,0,1.5,0,2.22,0c0.72,0,1.46-0.03,2.22-0.1c1.45-0.21,2.84-0.55,4.19-1.03c1.34-0.48,2.57-1.24,3.67-2.27
		c2.27-2.13,4.05-4.53,5.32-7.18c1.27-2.65,2-5.37,2.17-8.16c0.17-2.79-0.21-5.53-1.14-8.21
		C1294.23,1053.38,1292.7,1050.94,1290.56,1048.73z M1236.47,1029.67c0.03-1.27,0.05-2.7,0.05-4.29c1.31-0.14,2.55-0.33,3.72-0.57
		c1.17-0.24,2.34-0.36,3.51-0.36c6.27-0.14,12.67-0.14,19.22,0c1.17,0,2.32,0.07,3.46,0.21c1.14,0.14,2.29,0.35,3.46,0.62
		c2.62,0.48,4.1,2.03,4.44,4.65c0.21,1.59,0.09,2.84-0.36,3.77c-0.45,0.93-1.39,1.67-2.84,2.22c-0.9,0.41-1.84,0.76-2.84,1.03
		c-1,0.28-2.02,0.45-3.05,0.52c-3.72,0.14-7.42,0.26-11.11,0.36c-3.69,0.1-7.39,0.22-11.11,0.36c-0.62,0-1.38-0.07-2.27-0.21
		c-1.52-0.27-2.57-0.71-3.15-1.29c-0.59-0.58-0.95-1.67-1.08-3.25C1236.45,1032.2,1236.43,1030.94,1236.47,1029.67z
		 M1277.59,1066.76c-1,1.14-2.36,1.88-4.08,2.22c-1.24,0.21-2.46,0.4-3.67,0.57c-1.21,0.17-2.43,0.26-3.67,0.26
		c-4.07,0-8.1,0-12.09,0c-4,0-8.03,0-12.09,0c-0.9,0-1.77-0.07-2.63-0.21c-0.86-0.14-1.77-0.27-2.74-0.41
		c-0.62-2.55-1.02-4.92-1.19-7.13c-0.17-2.2,0.15-4.41,0.98-6.61c0.21-0.07,0.38-0.16,0.52-0.26c0.14-0.1,0.27-0.16,0.41-0.16
		c5.37,0,10.71-0.02,16.02-0.05c5.3-0.03,10.64-0.02,16.02,0.05c1.58,0,3.17,0.24,4.75,0.72c1.65,0.48,2.93,1.36,3.82,2.64
		c0.89,1.27,1.31,2.7,1.24,4.29C1279.13,1064.27,1278.59,1065.63,1277.59,1066.76z"/>
	<path style="fill:#B68E31;" d="M456.19,890.12c0-1.42,0.02-2.91,0.05-4.46c0.03-0.37,0.14-0.74,0.32-1.11
		c0.03-0.1,0.07-0.19,0.12-0.27c0.15-0.25,0.39-0.38,0.72-0.38h0.05c0.46,0,0.93,0.01,1.39,0.02s0.93,0.02,1.39,0.02
		c0.37,0,0.75,0.01,1.14,0.02c0.39,0.02,0.78,0.02,1.18,0.02c1.58,0.03,3.17,0.05,4.78,0.05h3.43c0.37,0,0.74,0.02,1.11,0.05
		c0.22,0.03,0.43,0.05,0.65,0.05c1.24-0.03,1.89-0.65,1.95-1.86c0-0.25-0.02-0.51-0.05-0.79c-0.03-0.43-0.2-0.81-0.51-1.14
		c-0.31-0.32-0.68-0.52-1.11-0.58c-0.28,0-0.54,0-0.79,0h-0.37c-0.28,0-0.56,0.01-0.86,0.02c-0.29,0.02-0.6,0.02-0.9,0.02
		c-0.68,0-1.36,0-2.04,0c-0.68,0-1.36-0.02-2.04-0.05c-0.99-0.06-2-0.05-3.02,0.05c-0.99,0.06-1.98,0.06-2.97,0
		c-1.18-0.06-2.36-0.1-3.55-0.12c-1.19-0.02-2.37-0.01-3.55,0.02c-0.46,0-0.93,0.01-1.39,0.02s-0.93,0.02-1.39,0.02
		c-0.8-0.12-1.5,0.09-2.09,0.65l-0.05,0.05v3.81v27.6l0.05,0.09c0.59,0.5,1.28,0.71,2.09,0.65h0.23c7.36,0,14.74-0.02,22.13-0.05
		c0.62,0.06,1.16-0.12,1.62-0.56c0.46-0.56,0.65-1.19,0.56-1.9c0.03-0.56-0.14-1.05-0.51-1.49c-0.5-0.4-1.07-0.56-1.72-0.46
		c-0.19,0-0.36,0.02-0.53,0.05c-0.17,0.03-0.35,0.05-0.53,0.05c-0.46,0.09-0.91,0.14-1.35,0.14c-0.87-0.03-1.72-0.05-2.58-0.07
		c-0.85-0.02-1.69-0.04-2.53-0.07c-0.53-0.03-1.06-0.05-1.6-0.05c-0.54,0-1.09-0.02-1.65-0.05h-1.86h-1.72
		c-0.62,0-1.02-0.08-1.21-0.23c-0.19-0.15-0.32-0.54-0.42-1.16c-0.03-0.22-0.05-0.45-0.05-0.7v-1.16c-0.03-0.56-0.05-1.11-0.05-1.67
		s0-1.11,0-1.67c0-0.59,0-1.22,0-1.9c0-0.68,0-1.38,0-2.09c0.03-0.53,0.14-0.88,0.32-1.07s0.56-0.29,1.11-0.33h0.46h11
		c0.46,0,0.93,0,1.39,0c0.46,0,0.93,0,1.39,0c0.56,0.03,1.04-0.15,1.44-0.56c0.46-0.59,0.65-1.25,0.56-2
		c-0.06-1.21-0.73-1.81-2-1.81h-0.14c-0.34,0-0.7,0.03-1.07,0.09c-0.34,0.06-0.7,0.09-1.07,0.09c-1.86,0.03-3.75,0.05-5.68,0.05
		c-1.93,0-3.91,0-5.92,0c-0.46-0.03-0.9-0.11-1.3-0.23c-0.4-0.12-0.57-0.39-0.51-0.79V890.12z"/>
	<path style="fill:#B68E31;" d="M514.19,892.63c-1.08-0.53-2.23-0.97-3.43-1.35c-0.53-0.15-1.08-0.26-1.67-0.33l-0.28-0.05
		c-0.12,0-0.26-0.01-0.39-0.02s-0.27-0.02-0.39-0.02c-0.15,0-0.29-0.01-0.39-0.02c-0.11-0.01-0.23-0.04-0.35-0.07
		c-0.5-0.06-0.99-0.12-1.48-0.19c-0.5-0.06-0.99-0.14-1.48-0.23c-0.74-0.09-1.47-0.19-2.18-0.3c-0.71-0.11-1.44-0.21-2.18-0.3
		c-2.04-0.19-3.93-0.8-5.66-1.86c-0.31-0.15-0.53-0.38-0.67-0.67c-0.14-0.29-0.15-0.61-0.02-0.95c0.15-0.71,0.49-1.34,1.02-1.88
		c0.04-0.04,0.08-0.07,0.12-0.11c0.5-0.48,1.09-0.79,1.78-0.94c1.39-0.37,2.81-0.57,4.27-0.6h0.09c1.36,0.06,2.71,0.26,4.04,0.6
		c0.93,0.17,1.8,0.48,2.6,0.94c0.23,0.13,0.47,0.27,0.69,0.43c0.99,0.7,1.78,1.59,2.37,2.67c0.25,0.46,0.53,0.9,0.83,1.3
		c0.31,0.43,0.59,0.68,0.84,0.74c0.25,0.06,0.62,0,1.11-0.19c0.96-0.4,1.64-1.08,2.04-2.04c0.4-0.9,0.45-1.79,0.14-2.69
		c-0.03-0.08-0.08-0.15-0.12-0.22c-0.12-0.22-0.27-0.43-0.48-0.61l-0.32-0.23c-1.48-1.36-3.19-2.32-5.1-2.88
		c-0.28-0.06-0.56-0.14-0.86-0.23c-0.29-0.09-0.58-0.17-0.86-0.23c-1.58-0.56-3.19-0.8-4.83-0.74c-0.12,0-0.25-0.02-0.37-0.05
		c-0.12-0.03-0.23-0.06-0.32-0.09c-0.22,0-0.42-0.01-0.6-0.02c-0.19-0.01-0.37-0.04-0.56-0.07c-0.96-0.09-1.92-0.12-2.88-0.09
		c-0.5,0.03-1,0.08-1.51,0.14c-0.51,0.06-1.03,0.14-1.55,0.23c-0.4,0.06-0.8,0.12-1.21,0.16c-0.4,0.05-0.8,0.1-1.21,0.16
		c-1.45,0.19-2.81,0.68-4.08,1.48c-1.15,0.56-2.1,1.34-2.85,2.34c-0.18,0.23-0.34,0.48-0.48,0.73c-0.48,0.82-0.81,1.71-0.98,2.68
		c-0.31,1.61-0.23,3.2,0.23,4.78c0.46,1.58,1.27,2.95,2.41,4.13c0.99,1.05,2.18,1.72,3.57,2c0.65,0.15,1.31,0.29,1.97,0.42
		c0.67,0.12,1.34,0.25,2.02,0.37l1.25,0.28c0.15,0.03,0.31,0.06,0.46,0.09c0.15,0.03,0.31,0.05,0.46,0.05
		c0.25,0.06,0.51,0.11,0.79,0.14c0.28,0.03,0.54,0.08,0.79,0.14c1.24,0.22,2.49,0.36,3.76,0.42c1.86,0.06,3.59,0.56,5.2,1.48
		c0.49,0.22,0.87,0.56,1.11,1.04c0.25,0.48,0.32,0.98,0.23,1.51c-0.12,0.87-0.46,1.64-1.02,2.32s-1.25,1.16-2.09,1.44
		c-2.6,0.96-5.21,1.02-7.84,0.19c-2.17-0.56-4.13-1.53-5.89-2.92c-0.68-0.53-1.24-1.14-1.67-1.86c-0.31-0.71-0.84-1.16-1.58-1.35
		c-0.8-0.15-1.52,0.03-2.13,0.56c-0.09,0.06-0.18,0.12-0.26,0.19c-0.08,0.06-0.16,0.12-0.26,0.19c-0.74,0.46-1.21,1.11-1.39,1.95
		c-0.16,0.87,0.02,1.66,0.51,2.37c0.49,0.71,1.11,1.27,1.86,1.67c3.06,1.92,6.37,3.16,9.93,3.71c1.11,0.19,2.24,0.29,3.39,0.33h2.27
		c0.62,0,1.24-0.03,1.86-0.09h0.05c0.68-0.09,1.26-0.18,1.74-0.25c0.48-0.08,1.06-0.19,1.74-0.35c0.49-0.09,0.96-0.23,1.39-0.42
		c0.43-0.12,0.85-0.25,1.25-0.37c0.93-0.12,1.73-0.53,2.41-1.21c0.15-0.15,0.36-0.28,0.6-0.37c0.15-0.06,0.28-0.12,0.37-0.19
		l0.19-0.09c0.15-0.09,0.32-0.19,0.49-0.3c0.17-0.11,0.33-0.21,0.49-0.3c0.4-0.28,0.8-0.6,1.21-0.97l0.14-0.09
		c0.28-0.19,0.49-0.42,0.65-0.7c0.8-1.36,1.38-2.81,1.72-4.36c0.43-2.13,0.19-4.18-0.74-6.12
		C517.19,894.66,515.92,893.4,514.19,892.63z"/>
	<path style="fill:#B68E31;" d="M557.01,879.68h-0.09c-1.7,0.03-3.41,0.05-5.13,0.05s-3.43-0.02-5.13-0.05h-18.98
		c-0.62-0.03-1.16,0.17-1.62,0.6c-0.46,0.59-0.63,1.25-0.51,2c-0.03,0.56,0.14,1.04,0.51,1.44c0.49,0.37,1.07,0.51,1.72,0.42
		c0.19,0,0.38-0.02,0.58-0.05c0.2-0.03,0.39-0.05,0.58-0.05c0.43-0.06,0.87-0.11,1.3-0.14c0.68,0,1.36,0,2.04,0
		c0.68,0,1.36,0,2.04,0h1.76c0.31-0.03,0.62-0.03,0.93,0c0.31,0,0.57,0.12,0.79,0.35c0.01,0.01,0.01,0.02,0.02,0.03
		c0.2,0.23,0.3,0.48,0.3,0.78c0.03,0.22,0.05,0.45,0.05,0.7v10.07v14.75c0,0.74,0.08,1.22,0.23,1.44c0.15,0.22,0.6,0.36,1.35,0.42
		c1.08,0.09,2.3,0.14,3.67,0.14c0.25,0,0.49,0,0.74,0c0.25,0,0.51,0,0.79,0c0.62-0.03,1-0.22,1.16-0.56
		c0.15-0.34,0.23-0.71,0.23-1.11c0-0.22,0.01-0.43,0.02-0.65c0.02-0.22,0.02-0.43,0.02-0.65c0.06-0.93,0.05-1.84-0.05-2.74
		c-0.03-0.62-0.02-1.25,0.05-1.9c0-0.09,0-0.19,0-0.28s0-0.2,0-0.33c0.03-0.34,0.05-0.69,0.07-1.04c0.02-0.36,0.04-0.72,0.07-1.09
		c0-0.37,0.01-0.75,0.02-1.14s0.04-0.78,0.07-1.18c0-0.12-0.03-0.25-0.09-0.37c0-0.06-0.02-0.14-0.05-0.23v-0.37
		c-0.03-0.31-0.05-0.61-0.05-0.9s0-0.6,0-0.91c0-0.31,0.03-0.62,0.09-0.93c0.06-0.4,0.09-0.82,0.09-1.25
		c-0.03-0.34-0.05-0.68-0.07-1.02c-0.02-0.34-0.02-0.68-0.02-1.02c-0.03-0.43-0.06-0.87-0.09-1.3c-0.03-0.43-0.05-0.87-0.05-1.3
		c0-0.56,0.02-1.11,0.05-1.65c0.03-0.54,0.08-1.07,0.14-1.6c0-0.28,0.01-0.56,0.02-0.86s0.04-0.58,0.07-0.86
		c0.03-0.51,0.11-0.86,0.25-1.06c0.01-0.02,0.02-0.04,0.03-0.06c0.15-0.19,0.48-0.28,0.97-0.28c1.24-0.03,2.47-0.04,3.71-0.02
		c1.24,0.02,2.46,0.02,3.67,0.02h0.51c0.31,0,0.62,0.03,0.93,0.09c0.28,0.06,0.57,0.09,0.88,0.09h0.09
		c0.34,0.03,0.66-0.06,0.95-0.28c0.29-0.22,0.49-0.51,0.58-0.88c0.31-0.9,0.2-1.75-0.32-2.55
		C558.38,879.87,557.75,879.62,557.01,879.68z"/>
	<path style="fill:#B68E31;" d="M567.99,908.03c-0.8-0.46-1.69-0.63-2.64-0.51c-0.56,0.16-1.02,0.45-1.39,0.88
		c-0.37,0.43-0.57,0.93-0.6,1.48c-0.09,0.59,0.02,1.11,0.35,1.58c0.32,0.46,0.78,0.74,1.37,0.83c0.22,0.06,0.42,0.12,0.63,0.16
		c0.2,0.05,0.36,0.09,0.49,0.12h0.79c0.59,0.03,1.11-0.14,1.55-0.51c0.45-0.37,0.72-0.85,0.81-1.44c0.12-0.56,0.06-1.07-0.19-1.55
		C568.9,908.6,568.51,908.25,567.99,908.03z"/>
	<path style="fill:#B68E31;" d="M896.05,910.41c0.32,0.68,0.78,1.18,1.37,1.49l0.04,0.05h0.08c1.05-0.31,1.78-1.04,2.18-2.18
		c0.35-0.96,0.71-1.89,1.09-2.81s0.75-1.83,1.13-2.76l0.65-1.67l1.78-4.36c0.51-1.27,1.04-2.55,1.57-3.85
		c0.11-0.28,0.21-0.56,0.32-0.84s0.22-0.56,0.32-0.83l0.2-0.46c0.11,0.09,0.17,0.19,0.18,0.3c0.01,0.11,0.02,0.24,0.02,0.39v3.25
		v14.15c0,0.74,0.12,1.25,0.36,1.53s0.71,0.43,1.41,0.46c0.67,0.06,1.33,0.09,1.96,0.09c0.63,0,1.23,0,1.8,0
		c0.59,0.15,1.1-0.05,1.53-0.6c0.4-0.53,0.5-1.13,0.28-1.81c-0.03-0.19-0.04-0.4-0.04-0.65c0-0.25,0-0.49,0-0.74v-0.65
		c0-0.06,0-0.13,0-0.21s0-0.16,0-0.25c0-0.06-0.01-0.13-0.02-0.21c-0.01-0.08-0.02-0.15-0.02-0.21c0-0.59-0.01-1.27-0.04-2.04
		c-0.11-1.55-0.12-3.11-0.04-4.69c0.19-1.73,0.19-3.46,0-5.2c-0.03-0.43-0.03-0.87,0-1.3v-0.33c0.03-0.46,0.05-0.93,0.06-1.39
		s0.03-0.93,0.06-1.39l0.04-1.58c0-0.09,0-0.19,0-0.28v-0.05c-0.03-0.16-0.05-0.3-0.06-0.44c-0.01-0.14-0.02-0.29-0.02-0.44
		c-0.11-0.62-0.15-1.24-0.12-1.86c0.03-0.43,0.04-0.9,0.04-1.42c0-0.11,0-0.23,0-0.35c0-0.4,0-0.8,0-1.21
		c-0.03-0.43-0.04-0.87-0.04-1.3c0-0.43,0.01-0.85,0.04-1.25c0-0.19-0.03-0.37-0.08-0.56c-0.03-0.15-0.05-0.26-0.08-0.33v-0.14
		h-0.52l-1.13-0.05l-1.17-0.09c-0.48-0.03-0.98-0.05-1.47-0.07c-0.5-0.02-1-0.02-1.51-0.02c-0.4-0.03-0.75,0.11-1.05,0.42
		c-0.38,0.65-0.69,1.33-0.93,2.04c-0.08,0.25-0.15,0.45-0.2,0.6c-0.21,0.56-0.42,1.11-0.62,1.67c-0.03,0.09-0.07,0.19-0.1,0.28
		c-0.17,0.46-0.34,0.93-0.52,1.39c-0.24,0.71-0.5,1.42-0.77,2.11c-0.27,0.7-0.55,1.4-0.85,2.11c-0.43,1.11-0.88,2.21-1.33,3.29
		c-0.46,1.08-0.92,2.15-1.37,3.2l-0.73,1.62c-0.11,0.22-0.23,0.42-0.36,0.6l-0.12,0.23c-0.16-0.22-0.32-0.45-0.48-0.7
		c-0.19-0.28-0.37-0.56-0.54-0.86c-0.18-0.29-0.34-0.58-0.5-0.86c-0.35-0.59-0.69-1.19-1.03-1.81c-0.34-0.62-0.69-1.27-1.07-1.95
		c-1.24-2.32-2.49-4.66-3.75-7.01l-0.74-1.39l-1.44-2.69l-0.12-0.19c-0.05-0.12-0.11-0.25-0.18-0.37c-0.07-0.12-0.14-0.23-0.22-0.33
		c-0.4-0.71-0.97-1.05-1.7-1.02h-0.08c-0.7-0.03-1.4-0.09-2.1-0.19h-0.08c-0.67-0.19-1.29-0.03-1.86,0.46
		c-0.43,0.56-0.59,1.21-0.48,1.95c0.05,0.46,0.07,0.91,0.06,1.35c-0.01,0.34-0.01,0.68-0.02,1.02c0,0.09,0,0.19,0,0.28
		c0,0.16,0,0.32,0,0.49s0,0.33,0,0.49c-0.05,3.59-0.09,7.17-0.1,10.74c-0.01,3.57-0.02,7.12-0.02,10.65v3.29
		c0,0.43,0.05,0.85,0.16,1.25c0.05,0.28,0.18,0.5,0.38,0.67c0.2,0.17,0.42,0.24,0.67,0.21c0.11,0,0.21,0,0.32,0
		c0.11-0.03,0.21-0.05,0.32-0.05s0.22,0,0.32,0c0.32,0,0.65-0.03,0.97-0.09l0.2-0.05c0.48-0.12,0.79-0.25,0.93-0.39
		c0.13-0.14,0.19-0.52,0.16-1.14c-0.03-0.4-0.07-0.79-0.12-1.16c-0.08-0.43-0.12-0.87-0.12-1.3c-0.03-2.23-0.03-4.43-0.02-6.61
		s0.02-4.26,0.02-6.24c0.03-0.22,0.08-0.42,0.16-0.6v-0.09l1.09,1.81c0.43,0.74,0.85,1.46,1.25,2.16c0.4,0.7,0.81,1.4,1.21,2.11
		c0.56,0.99,1.12,1.98,1.65,2.97c0.54,0.99,1.08,1.96,1.62,2.92C894.65,907.87,895.35,909.14,896.05,910.41z"/>
	<path style="fill:#B68E31;" d="M950.05,910.27c0,0.74,0.12,1.25,0.36,1.53s0.71,0.43,1.41,0.46c0.67,0.06,1.33,0.09,1.96,0.09
		c0.63,0,1.23,0,1.8,0c0.59,0.15,1.1-0.05,1.53-0.6c0.4-0.53,0.5-1.13,0.28-1.81c-0.03-0.19-0.04-0.4-0.04-0.65
		c0-0.25,0-0.49,0-0.74v-0.65c0-0.06,0-0.13,0-0.21s0-0.16,0-0.25c0-0.06-0.01-0.13-0.02-0.21c-0.01-0.08-0.02-0.15-0.02-0.21
		c0-0.59-0.01-1.27-0.04-2.04c-0.11-1.55-0.12-3.11-0.04-4.69c0.19-1.73,0.19-3.46,0-5.2c-0.03-0.43-0.03-0.87,0-1.3v-0.33
		c0.03-0.46,0.05-0.93,0.06-1.39s0.03-0.93,0.06-1.39l0.04-1.58c0-0.09,0-0.19,0-0.28v-0.05c-0.03-0.16-0.05-0.3-0.06-0.44
		c-0.01-0.14-0.02-0.29-0.02-0.44c-0.11-0.62-0.15-1.24-0.12-1.86c0.03-0.43,0.04-0.9,0.04-1.42c0-0.11,0-0.23,0-0.35
		c0-0.4,0-0.8,0-1.21c-0.03-0.43-0.04-0.87-0.04-1.3c0-0.43,0.01-0.85,0.04-1.25c0-0.19-0.03-0.37-0.08-0.56
		c-0.03-0.15-0.05-0.26-0.08-0.33v-0.14h-0.52l-1.13-0.05l-1.17-0.09c-0.48-0.03-0.98-0.05-1.47-0.07c-0.5-0.02-1-0.02-1.51-0.02
		c-0.4-0.03-0.75,0.11-1.05,0.42c-0.38,0.65-0.69,1.33-0.93,2.04c-0.08,0.25-0.15,0.45-0.2,0.6c-0.21,0.56-0.42,1.11-0.62,1.67
		c-0.03,0.09-0.07,0.19-0.1,0.28c-0.17,0.46-0.34,0.93-0.52,1.39c-0.24,0.71-0.5,1.42-0.77,2.11c-0.27,0.7-0.55,1.4-0.85,2.11
		c-0.43,1.11-0.88,2.21-1.33,3.29c-0.46,1.08-0.92,2.15-1.37,3.2l-0.73,1.62c-0.11,0.22-0.23,0.42-0.36,0.6l-0.12,0.23
		c-0.16-0.22-0.32-0.45-0.48-0.7c-0.19-0.28-0.37-0.56-0.54-0.86c-0.18-0.29-0.34-0.58-0.5-0.86c-0.35-0.59-0.69-1.19-1.03-1.81
		c-0.34-0.62-0.69-1.27-1.07-1.95c-1.24-2.32-2.49-4.66-3.75-7.01l-0.74-1.39l-1.44-2.69l-0.12-0.19c-0.05-0.12-0.11-0.25-0.18-0.37
		c-0.07-0.12-0.14-0.23-0.22-0.33c-0.4-0.71-0.97-1.05-1.7-1.02h-0.08c-0.7-0.03-1.4-0.09-2.1-0.19h-0.08
		c-0.67-0.19-1.29-0.03-1.86,0.46c-0.43,0.56-0.59,1.21-0.48,1.95c0.05,0.46,0.07,0.91,0.06,1.35c-0.01,0.34-0.01,0.68-0.02,1.02
		c0,0.09,0,0.19,0,0.28c0,0.16,0,0.32,0,0.49s0,0.33,0,0.49c-0.05,3.59-0.09,7.17-0.1,10.74c-0.01,3.57-0.02,7.12-0.02,10.65v3.29
		c0,0.43,0.05,0.85,0.16,1.25c0.05,0.28,0.18,0.5,0.38,0.67c0.2,0.17,0.42,0.24,0.67,0.21c0.11,0,0.21,0,0.32,0
		c0.11-0.03,0.21-0.05,0.32-0.05s0.22,0,0.32,0c0.32,0,0.65-0.03,0.97-0.09l0.2-0.05c0.48-0.12,0.79-0.25,0.93-0.39
		c0.13-0.14,0.19-0.52,0.16-1.14c-0.03-0.4-0.07-0.79-0.12-1.16c-0.08-0.43-0.12-0.87-0.12-1.3c-0.03-2.23-0.03-4.43-0.02-6.61
		s0.02-4.26,0.02-6.24c0.03-0.22,0.08-0.42,0.16-0.6v-0.09l1.09,1.81c0.43,0.74,0.85,1.46,1.25,2.16c0.4,0.7,0.81,1.4,1.21,2.11
		c0.56,0.99,1.12,1.98,1.65,2.97c0.54,0.99,1.08,1.96,1.62,2.92c0.7,1.27,1.4,2.54,2.1,3.8c0.32,0.68,0.78,1.18,1.37,1.49l0.04,0.05
		h0.08c1.05-0.31,1.78-1.04,2.18-2.18c0.35-0.96,0.71-1.89,1.09-2.81s0.75-1.83,1.13-2.76l0.65-1.67l1.78-4.36
		c0.51-1.27,1.04-2.55,1.57-3.85c0.11-0.28,0.21-0.56,0.32-0.84s0.22-0.56,0.32-0.83l0.2-0.46c0.11,0.09,0.17,0.19,0.18,0.3
		c0.01,0.11,0.02,0.24,0.02,0.39v3.25V910.27z"/>
	<path style="fill:#B68E31;" d="M991.84,908.92c-1.59-2.75-3.2-5.52-4.84-8.31c-0.46-0.8-0.98-1.7-1.55-2.69s-1.18-2.01-1.8-3.06
		c-0.4-0.56-0.44-1.16-0.12-1.81c0.43-0.93,0.94-1.79,1.53-2.6c0.54-0.77,1.07-1.54,1.59-2.3c0.53-0.76,1.04-1.51,1.55-2.25
		l0.36-0.51c0.26-0.37,0.51-0.74,0.76-1.11c0.06-0.09,0.13-0.19,0.19-0.28c0.31-0.46,0.61-0.94,0.91-1.44
		c0.51-0.53,0.63-1.16,0.36-1.9c-0.35-0.71-0.87-1.07-1.57-1.07c-0.24,0-0.47,0-0.69,0c-0.22,0-0.44,0-0.69,0h-0.08
		c-0.46,0-0.82,0.2-1.09,0.6c-0.05,0.06-0.11,0.12-0.16,0.19c-0.05,0.06-0.11,0.12-0.16,0.19c-0.19,0.22-0.36,0.43-0.52,0.65
		c-0.54,0.83-1.09,1.67-1.66,2.5c-0.11,0.19-0.23,0.37-0.35,0.56c-0.16,0.26-0.32,0.54-0.5,0.79c-0.3,0.43-0.59,0.87-0.89,1.3
		c-0.08,0.16-0.16,0.29-0.24,0.42c-0.08,0.12-0.16,0.25-0.24,0.37c-0.4,0.77-0.9,1.42-1.49,1.95l-0.12-0.14
		c-0.16-0.12-0.31-0.28-0.44-0.46c-0.43-0.68-0.88-1.38-1.33-2.11c-0.43-0.68-0.86-1.39-1.29-2.11c-0.03-0.05-0.06-0.09-0.08-0.14
		l-0.44-0.65c-0.51-0.8-1-1.64-1.45-2.51c-0.16-0.43-0.42-0.77-0.79-1.02c-0.36-0.25-0.75-0.36-1.15-0.33h-0.04
		c-0.57,0-1.13,0-1.7,0c-0.57,0-1.12,0-1.66,0c-0.3,0-0.59-0.01-0.89-0.02c-0.3-0.02-0.59-0.02-0.89-0.02
		c-0.32,0-0.65,0.03-0.97,0.09c-0.27,0.06-0.48,0.23-0.65,0.51c-0.13,0.28-0.16,0.57-0.08,0.88c0.08,0.31,0.2,0.6,0.36,0.88
		c0.44,0.77,0.88,1.55,1.31,2.32c1.42,2.51,2.84,5.01,4.26,7.52c0.3,0.53,0.6,1.05,0.91,1.58c0.31,0.53,0.62,1.07,0.95,1.62
		l0.77,1.35l-0.24,0.46c-0.22,0.4-0.43,0.77-0.65,1.11c-0.22,0.31-0.43,0.61-0.65,0.9c-0.22,0.29-0.43,0.6-0.65,0.91
		c-0.3,0.4-0.59,0.81-0.89,1.23c-0.3,0.42-0.59,0.84-0.89,1.28c-0.38,0.59-0.75,1.18-1.13,1.76s-0.74,1.18-1.09,1.76
		c-0.27,0.43-0.53,0.85-0.79,1.25c-0.26,0.4-0.5,0.8-0.75,1.21c-0.32,0.5-0.56,0.9-0.71,1.21c-0.15,0.31-0.2,0.59-0.14,0.83
		c0.03,0.28,0.15,0.53,0.38,0.77c0.23,0.23,0.56,0.5,0.99,0.81c0.4,0.34,0.85,0.51,1.33,0.51c0.78-0.03,1.39-0.4,1.82-1.11
		c0.21-0.34,0.42-0.67,0.62-1c0.2-0.32,0.41-0.64,0.63-0.95c0.16-0.28,0.33-0.56,0.5-0.83c0.17-0.28,0.34-0.56,0.5-0.83
		c0.43-0.65,0.87-1.33,1.33-2.04c0.46-0.71,0.94-1.42,1.45-2.13c0.38-0.5,0.79-0.97,1.25-1.44l0.04-0.05
		c0.22-0.25,0.39-0.37,0.53-0.37c0.11,0,0.25,0.14,0.44,0.42c0.05,0.09,0.11,0.19,0.16,0.3c0.05,0.11,0.11,0.21,0.16,0.3l0.16,0.33
		c0.21,0.37,0.42,0.74,0.62,1.11c0.2,0.37,0.41,0.74,0.63,1.11c0.51,0.9,1.02,1.79,1.51,2.69c0.5,0.9,1,1.81,1.51,2.74
		c0.21,0.5,0.53,0.87,0.95,1.14c0.42,0.26,0.87,0.39,1.35,0.39c0.57-0.03,1.14-0.04,1.72-0.02c0.58,0.02,1.15,0.02,1.72,0.02
		c0.35,0,0.71,0,1.09,0s0.75,0,1.13,0c0.35,0,0.69-0.06,1.01-0.19c0.27-0.09,0.47-0.29,0.61-0.6c0.11-0.31,0.09-0.6-0.04-0.88
		C992.4,909.93,992.14,909.42,991.84,908.92z"/>
	<path style="fill:#B68E31;" d="M1004.78,911.24c0.21-0.34,0.42-0.67,0.62-1c0.2-0.32,0.41-0.64,0.63-0.95
		c0.16-0.28,0.33-0.56,0.5-0.83c0.17-0.28,0.34-0.56,0.5-0.83c0.43-0.65,0.87-1.33,1.33-2.04c0.46-0.71,0.94-1.42,1.45-2.13
		c0.38-0.5,0.79-0.97,1.25-1.44l0.04-0.05c0.22-0.25,0.39-0.37,0.53-0.37c0.11,0,0.25,0.14,0.44,0.42c0.05,0.09,0.11,0.19,0.16,0.3
		c0.05,0.11,0.11,0.21,0.16,0.3l0.16,0.33c0.21,0.37,0.42,0.74,0.62,1.11c0.2,0.37,0.41,0.74,0.63,1.11
		c0.51,0.9,1.02,1.79,1.51,2.69c0.5,0.9,1,1.81,1.51,2.74c0.21,0.5,0.53,0.87,0.95,1.14c0.42,0.26,0.87,0.39,1.35,0.39
		c0.57-0.03,1.14-0.04,1.72-0.02c0.58,0.02,1.15,0.02,1.72,0.02c0.35,0,0.71,0,1.09,0s0.75,0,1.13,0c0.35,0,0.69-0.06,1.01-0.19
		c0.27-0.09,0.47-0.29,0.61-0.6c0.11-0.31,0.09-0.6-0.04-0.88c-0.21-0.53-0.47-1.04-0.77-1.53c-1.59-2.75-3.2-5.52-4.84-8.31
		c-0.46-0.8-0.98-1.7-1.55-2.69s-1.18-2.01-1.8-3.06c-0.4-0.56-0.44-1.16-0.12-1.81c0.43-0.93,0.94-1.79,1.53-2.6
		c0.54-0.77,1.07-1.54,1.59-2.3c0.53-0.76,1.04-1.51,1.55-2.25l0.36-0.51c0.26-0.37,0.51-0.74,0.76-1.11
		c0.06-0.09,0.13-0.19,0.19-0.28c0.31-0.46,0.61-0.94,0.91-1.44c0.51-0.53,0.63-1.16,0.36-1.9c-0.35-0.71-0.87-1.07-1.57-1.07
		c-0.24,0-0.47,0-0.69,0c-0.22,0-0.44,0-0.69,0h-0.08c-0.46,0-0.82,0.2-1.09,0.6c-0.05,0.06-0.11,0.12-0.16,0.19
		c-0.05,0.06-0.11,0.12-0.16,0.19c-0.19,0.22-0.36,0.43-0.52,0.65c-0.54,0.83-1.09,1.67-1.66,2.5c-0.11,0.19-0.23,0.37-0.35,0.56
		c-0.16,0.26-0.32,0.54-0.5,0.79c-0.3,0.43-0.59,0.87-0.89,1.3c-0.08,0.16-0.16,0.29-0.24,0.42c-0.08,0.12-0.16,0.25-0.24,0.37
		c-0.4,0.77-0.9,1.42-1.49,1.95l-0.12-0.14c-0.16-0.12-0.31-0.28-0.44-0.46c-0.43-0.68-0.88-1.38-1.33-2.11
		c-0.43-0.68-0.86-1.39-1.29-2.11c-0.03-0.05-0.06-0.09-0.08-0.14l-0.44-0.65c-0.51-0.8-1-1.64-1.45-2.51
		c-0.16-0.43-0.42-0.77-0.79-1.02c-0.36-0.25-0.75-0.36-1.15-0.33h-0.04c-0.57,0-1.13,0-1.7,0c-0.57,0-1.12,0-1.66,0
		c-0.3,0-0.59-0.01-0.89-0.02c-0.3-0.02-0.59-0.02-0.89-0.02c-0.32,0-0.65,0.03-0.97,0.09c-0.27,0.06-0.48,0.23-0.65,0.51
		c-0.13,0.28-0.16,0.57-0.08,0.88c0.08,0.31,0.2,0.6,0.36,0.88c0.44,0.77,0.88,1.55,1.31,2.32c1.42,2.51,2.84,5.01,4.26,7.52
		c0.3,0.53,0.6,1.05,0.91,1.58c0.31,0.53,0.62,1.07,0.95,1.62l0.77,1.35l-0.24,0.46c-0.22,0.4-0.43,0.77-0.65,1.11
		c-0.22,0.31-0.43,0.61-0.65,0.9c-0.22,0.29-0.43,0.6-0.65,0.91c-0.3,0.4-0.59,0.81-0.89,1.23c-0.3,0.42-0.59,0.84-0.89,1.28
		c-0.38,0.59-0.75,1.18-1.13,1.76s-0.74,1.18-1.09,1.76c-0.27,0.43-0.53,0.85-0.79,1.25c-0.26,0.4-0.5,0.8-0.75,1.21
		c-0.32,0.5-0.56,0.9-0.71,1.21c-0.15,0.31-0.2,0.59-0.14,0.83c0.03,0.28,0.15,0.53,0.38,0.77c0.23,0.23,0.56,0.5,0.99,0.81
		c0.4,0.34,0.85,0.51,1.33,0.51C1003.75,912.33,1004.35,911.96,1004.78,911.24z"/>
	<path style="fill:#B68E31;" d="M1049.27,898.62l-0.08,0.09l-0.04-0.05c-0.05,0-0.11-0.03-0.16-0.09l-0.2-0.42
		c-0.51-1.11-1.03-2.25-1.55-3.41c-0.53-1.16-1.04-2.33-1.55-3.5c-0.19-0.4-0.37-0.81-0.54-1.23c-0.17-0.42-0.36-0.83-0.54-1.23
		l-0.65-1.58l-0.28-0.65c-0.19-0.5-0.38-0.97-0.58-1.44c-0.12-0.28-0.26-0.56-0.4-0.84c-0.09-0.19-0.17-0.37-0.27-0.56
		c-0.46-0.99-1.02-2.06-1.7-3.2c-0.22-0.37-0.5-0.6-0.85-0.7c-1.59-0.34-3.18-0.45-4.76-0.32c-0.16,0-0.33,0-0.5,0
		c-0.18,0-0.36,0-0.55,0c-0.46,0-0.81,0.22-1.05,0.65c-0.27,0.56-0.28,1.11-0.04,1.67c0.35,0.84,0.68,1.65,1.01,2.46
		c0.39,0.95,0.77,1.88,1.15,2.78c0.69,1.67,1.37,3.31,2.04,4.92c0.24,0.59,0.48,1.16,0.73,1.72s0.48,1.11,0.73,1.67
		c0.46,1.08,0.89,2.12,1.29,3.11c0.16,0.34,0.31,0.69,0.44,1.04c0.13,0.36,0.27,0.7,0.4,1.04c0.16,0.37,0.31,0.74,0.44,1.09
		c0.13,0.36,0.28,0.7,0.44,1.04c0.43,1.02,0.87,2.07,1.31,3.13c0.44,1.07,0.91,2.13,1.39,3.18c0.4,0.9,0.89,1.73,1.45,2.51
		c0.35,0.53,0.81,0.82,1.37,0.88h0.12c0.65-0.12,1.1-0.53,1.37-1.21c0.43-0.8,0.85-1.63,1.27-2.48c0.42-0.85,0.8-1.71,1.15-2.58
		c0.32-0.77,0.64-1.55,0.95-2.32c0.31-0.77,0.61-1.56,0.91-2.37c0.35-0.93,0.71-1.86,1.07-2.78s0.75-1.86,1.15-2.78
		c0.59-1.42,1.2-2.85,1.84-4.27c0.63-1.42,1.26-2.83,1.88-4.22c0.47-1.04,0.92-2.07,1.38-3.11c0.22-0.51,0.46-1.02,0.68-1.53
		c0.19-0.46,0.34-0.93,0.44-1.39c0.05-0.19,0.11-0.37,0.16-0.56s0.11-0.36,0.16-0.51v-0.05c0.03-0.19-0.01-0.36-0.12-0.51
		c-0.19-0.22-0.42-0.31-0.69-0.28h-0.08c-0.27-0.03-0.54-0.03-0.81,0c-0.27,0.03-0.54,0.03-0.81,0c-0.05,0-0.11,0-0.16,0
		c-0.54,0.09-1.02,0.33-1.45,0.72s-0.74,0.87-0.93,1.46c-0.32,0.8-0.66,1.59-1.01,2.37c-0.04,0.09-0.08,0.19-0.12,0.28
		c-0.3,0.68-0.6,1.36-0.89,2.04l-0.12,0.19c-0.08,0.22-0.16,0.41-0.24,0.58c-0.08,0.17-0.16,0.35-0.24,0.53
		c-0.13,0.25-0.26,0.48-0.36,0.7c-0.11,0.22-0.2,0.45-0.28,0.7c-0.35,0.8-0.69,1.6-1.01,2.39s-0.65,1.59-0.97,2.39
		c-0.62,1.48-1.24,2.95-1.86,4.41C1049.48,898.36,1049.38,898.5,1049.27,898.62z"/>
	<path style="fill:#B68E31;" d="M1077.35,898.67c0.08-1.27,0.08-2.54,0-3.8c-0.08-1.24-0.08-2.46,0-3.67
		c0.05-1.11,0.03-2.23-0.08-3.34c-0.18-1.18-0.19-2.37-0.06-3.57c0.03-0.28,0.06-0.56,0.1-0.84c0.03-0.12,0.03-0.25,0-0.37
		c0-0.03-0.01-0.08-0.04-0.14c0-0.25-0.01-0.45-0.04-0.6c-0.03-0.46-0.04-0.93-0.04-1.39c0.03-0.62-0.04-1.02-0.2-1.21
		c-0.24-0.22-0.53-0.31-0.85-0.28c-1.67-0.03-3.28-0.01-4.84,0.05c-0.54,0-0.88,0.1-1.03,0.3c-0.15,0.2-0.24,0.6-0.26,1.18
		c0,0.19,0,0.43,0,0.74v2.55v26.03c0,0.68,0.12,1.17,0.36,1.46c0.24,0.29,0.65,0.44,1.21,0.44c0.16,0,0.32,0.01,0.48,0.02
		c0.16,0.02,0.32,0.04,0.48,0.07c0.3,0,0.59,0.01,0.89,0.02c0.3,0.02,0.59,0.02,0.89,0.02c0.49,0,0.96-0.03,1.41-0.09
		c0.67-0.06,1.12-0.25,1.35-0.56c0.23-0.31,0.32-0.85,0.26-1.62c-0.05-0.74-0.1-1.52-0.14-2.32c-0.04-0.8-0.06-1.61-0.06-2.41v-0.74
		C1077.12,902.63,1077.19,900.65,1077.35,898.67z"/>
	<path style="fill:#B68E31;" d="M322.42,885.37c-1.62-0.33-5.95,3.14-11.98,1.93c-15.08-3.05-46.72-8.96-59.89-15.48
		c-1.35-0.51-2.6-1.49-2.22-3.35l0.14-0.7c18.5-12.68,54.12-21.66,77.32-16.98c2.78,0.56,5.38,0.85,6.09-2.63l5.86-29
		c1.5-7.42-0.26-9.47-7.22-10.88c-19.72-3.98-40.05-3.75-59.77-7.73c-19.02-3.84-37.62-9.77-56.65-13.62
		c-12.53-2.53-26.26-5.06-37.48-11.68l-1.9-0.14c-0.84,2.97-2.19,6.08-2.85,9.32c-1.03,5.1-0.44,10.54-1.47,15.64
		c-0.84,4.18-2.15,8.26-2.99,12.43c-0.75,3.71-1.46,8.4,1.51,11.65c15.46-3.64,36.58,0.63,52.12,3.77c3.02,0.61,6.26,1.27,9.09,2.8
		c-1.63,2.09-2.33,3.15-4.97,4.31c-15.8,7.67-39.54,17.61-57.17,14.05c-1.86-0.38-4.04-0.33-6.03-0.01
		c-2.58,11.55-6.08,22.92-8.42,34.52c-0.66,3.25-1.64,8.12-1.09,11.37c0.83,0.65,1.72,1.07,2.64,1.26c1.39,0.28,2.88,0.1,4.36-0.08
		c9.01-1.56,18.06-0.94,26.87,0.84l18.1,3.66c5.8,1.17,11.83,1.18,17.87,2.4c4.64,0.94,9.09,2.8,13.73,3.74
		c18.1,3.66,35.53,10.56,53.86,14.26c4.64,0.94,15.82,2.95,19.34,5.84c1.48,1.02,1.66,3.72,3.75,4.14
		c3.71,0.75,7.8-25.47,8.79-30.34C322.21,898.37,325.43,885.98,322.42,885.37z"/>
	<path style="fill:#B68E31;" d="M402.88,677.12c-1.26-2.87-1.92-7.6-3.55-9.75c-1.22-1.59-3.35-2.7-5.14-3.88
		c-7.52-1.2-15.03-2.68-22.34-4.65c-32.07-8.82-63.34-20.75-94.65-32.16c-1.94-0.91-3.8-1.5-5.62-2.61
		c-6.46-3.96-6.67-7.69-10.63-13.45l-1.8,1.12c-11.39,16.34-20.77,33.91-31.28,51.06c-0.87,1.41-0.8,3.12,0.49,4.19
		c6.45,0.34,10.68-0.67,16.33,2.79c10.5,6.43,29.91,31.37,38.91,41.6c8.6,9.98,17.64,19.69,26.11,29.87
		c3.01,3.23,5.33,7.15,8.35,10.39c6.99,7.61,21.37,24.47,24.09,33.63c0.44,1.1,0.67,2.08,1.68,2.7c0.4,0.25,1.13,0.42,1.66,0.46
		c6.45-8.26,11.73-17.79,17.29-26.88c2.23-3.63,5.07-8.28,5.35-12.82c-2.96-0.15-5.83-1.35-8.26-2.84
		c-11.1-6.8-19.68-18.16-11.77-31.08c3.96-6.46,11.69-17.27,17.49-21.76c5.6,0.38,14.63,2.85,19.27,5.7
		c3.63,2.23,6.52,5.66,9.79,8.49c5.46-5.85,10.02-13.14,14.32-20.36c-0.02-0.03-0.05-0.05-0.07-0.08
		C406.81,684.31,404.19,680.1,402.88,677.12z M324.8,689.41c-2.23,3.63-4.48,6.41-7.87,8.78c-6.9-5.06-25.21-21.83-27.86-29.28
		c3.96-2.85,31.01,8.73,35.86,11.69c1.01,0.62,1.97,1.76,3.06,2.71C326.95,685.46,325.92,687.6,324.8,689.41z"/>
	<path style="fill:#B68E31;" d="M389.16,568.67c2.35,0.68,4.8,1.11,7.33,1.32c6.1-3.02,11.99-5.09,16.61-5.57
		c4.09-0.43,8.56-0.39,12.59,0.82c9.15-3.11,17.91-7.19,25.07-10.75c7.18-3.5,16.97-3.64,22.36,3.26s3.37,15.08-3.34,20.33
		c-4.31,3.37-9.26,6.12-14.28,8.41c6.58,8.33,8.05,17.6,5.54,27.91c-0.85,3.47-2.61,7.41-4.1,11.15
		c14.29-4.4,30.39-9.53,38.08-15.54c6.53-5.1,11.76-13.39,16.13-20.1c12.19-18.23,8.38-36.57,0.81-55.88
		c-6.55-8.39-13.9-15.87-24.61-19.22c-15.62-4.62-31.5-3.03-46.2,2.75c-11.55,4.82-34.54,20.37-45.03,6.94
		c-5.97-7.65-2.36-16.48,4.73-22.01c12.31-9.61,37.09-10.95,51.63-5.79c1.29,0.5,2.87,1.36,4.07-0.17
		c-1.51-6.93-5.98-13.05-8.01-19.87c-1.82-5.79-3.63-11.58-5.45-17.36c-0.61-1.93-1.21-3.86-2.52-5.54
		c-0.44-0.56-0.73-0.93-1.35-1.35c-5.83,2.15-10.33,4.46-16.55,5.72c-16.89,2.98-32.05,9.71-45.48,20.2
		c-28.54,22.29-33.47,48.66-10.75,77.76C371.52,562.62,381.54,566.22,389.16,568.67z"/>
	<path style="fill:#B68E31;" d="M534.73,452.17c1.36,4.53,1.81,9.34,3.23,14.1c2.31,7.71,5.81,15.31,8.12,23.02
		c5.29,17.69,10.65,35.6,13.15,53.87c0.74,4.97-0.23,9.95-0.76,14.8c1.52,1.77,2.79,1.88,5.05,1.2l1.13-0.34
		c8.12-3.42,16.28-5.86,24.53-8.82c3.11-1.18,6.01-3.03,9.18-3.98c3.85-1.15,9.32-1.06,11.68-4.73
		c-5.59-10.43-12.02-20.37-15.35-31.48c-1.83-6.12-2.48-11.61-1.17-17.93c4.79-4.64,9.96-9.65,16.53-11.62
		c9.98-2.99,17.09-0.67,25.64,3.94c3.96,7.46,7.54,15.28,9.98,23.45c2.1,7.03-0.01,14.83,2.16,22.08c0.27,0.91,1,1.68,2.11,2.09
		c8.71-5.57,21.16-8.55,31.13-11.54c4.08-1.22,8.21-1.47,12.06-2.62c4.08-1.22,7.64-5,6.42-9.09c-6.16-6.56-12.93-12.68-17.71-20.39
		c-6.25-10.98-10.07-22.93-13.67-34.94c-2.1-7.03-4.21-14.06-5.86-21.22c-2.94-11.47-3.93-23.04-6.87-34.51
		c-2.71-11.54-2.75-22.4-2.54-34.07c0.05-1.5-0.29-2.63-0.47-4.06c-5.21-0.91-12.9,0.65-21.06,3.09
		c-9.75,2.92-20.36,7.08-29.14,9.95c-2.2,0.9-4.69,1.65-4.92,4.19c8.45,12.54,14.56,28.01,18.83,42.29c1.22,4.08,3.8,12.7,0.99,16.5
		c-2.75,4.03-15.49,9.33-20.48,10.82c-9.98,2.98-19.99,0.05-23.43-9.79c-3.39-8.87-6.27-17.64-8.98-26.71
		c-2.44-8.16-0.17-13.78,1.19-21.6c-1.52-1.77-3.74-2.59-6.01-1.91c-5.44,1.63-10.34,5.07-15.71,6.93
		c-7.96,3.12-16.35,3.16-24.51,5.6c-2.88,1.11-5.9,1.76-8.28,3.71c0.57,1.07,1.43,2.29,2.22,3.29
		C523.4,419.24,529.99,436.3,534.73,452.17z"/>
	<path style="fill:#B68E31;" d="M746.46,388.73c1.54,11.03,2.58,22.51,4.83,33.59c3.35,15.44,5.72,31.29,6.89,47.28
		c0.63,7.41,3.69,26.62,3.32,31.58c-0.43,5.66-3.16,10.44-4.75,15.78c7.21,1.97,15.24,2.57,22.55,3.12l32.81,2.47
		c3.54,0.27,7.33,0.31,10.96-0.6c-2.29-4.21-5.04-8.69-4.65-13.88c1.97-26.2,12.93-51.96,22.34-76.17
		c2.35-5.99,2.86-12.84,4.98-18.85c6.11-18.05,12.23-36.35,21.08-53.01c-2.32-0.65-4.43-1.05-6.56-1.2
		c-6.14-0.46-12.09-0.2-17.99-0.64c-5.43-0.41-10.51-2.21-15.71-2.61c-3.3-0.25-6.41-0.01-9.58,1.18c0.32,5.25,1.6,10.33,1.21,15.52
		c-0.85,11.33-14.02,63.27-19.21,72.37l-4.48-0.34c-8.64-8.24-10.12-57.96-9.16-70.71c0.48-6.37,1.68-12.93,3.56-18.96l-0.38-1.22
		c-5.59-1.37-11.48-2.05-17.38-2.49l-21.95-1.65c-1.89-0.14-15.11-1.14-15.3,1.46c-0.18,2.36,3.73,7.16,4.97,9.63
		C742.72,368.99,745.04,379.13,746.46,388.73z"/>
	<path style="fill:#B68E31;" d="M891.53,542.1c12.01,4.38,24.74,9.53,37.31,12.36l0.53-0.06c0.47-0.59,0.93-1.17,1.18-1.84
		c0.41-1.11-0.89-3.09-1.23-4.23c-1.81-4.69-1.59-10.15-0.33-14.98c2.7-10.86,6.46-21.83,10.27-32.28c2.84-7.78,7.24-15,10.16-23
		c2.6-7.11,4.16-14.86,6.84-22.19c5.03-13.78,12.25-28.03,19.87-40.62c3.22-5.37,12.57-7.51,13.8-11.59
		c-0.1-1.8-1.19-2.95-2.89-3.83c-9.33-6.18-22.78-10.08-33.23-13.89c-4.22-1.54-19.24-8.03-21.43-2.03
		c-1.05,2.89,4.8,10.32,2.85,18.42c-1.97,8.85-5.14,17.53-8.22,25.97c-10.14,27.79-21.7,55.32-32.96,82.7
		c-3.79,9.7-10.65,14-17.38,21.37C875.64,537.31,887.75,540.72,891.53,542.1z"/>
	<path style="fill:#B68E31;" d="M975.19,548.02c-2.59,1.92-14.63,9.51-15.62,10.84c-0.56,0.76-0.74,1.81-0.78,2.66
		c1.3,1.83,3.06,3.43,4.78,4.69c0.76,0.56,1.33,0.98,2.1,1.54c12.28,7.27,24.84,14.16,36.47,22.72
		c9.91,7.29,19.41,15.16,28.76,23.22c2.52,2.13,4.85,4.47,7.1,6.9c-0.95-2.24-1.8-4.36-2.22-6.05c-2.75-11.14,0.88-28.32,11.12-35.4
		c-1.53-1.39-3.02-2.91-4.62-4.09c-10.48-7.71-11.82-8.7-15.25-21.21c0.58-3.98,17.18-26.15,20.4-30.53
		c9.96-13.54,19.92-27.07,30.78-40.24c9.6-11.45,16.29-9.76,25.92-17.66c-0.93-2.74-0.89-3.59-3.36-5.41
		c-8.77-6.45-18.19-11.62-26.96-18.07c-3.05-2.24-5.02-5.16-8.07-7.41c-2.67-1.96-5.76-3.36-8.75-4.09
		c-2.14-0.69-3.64,0.55-3.81,2.78c-0.16,3.41,0.05,5.92-1.99,10.29c-3.2,6.75-5.79,14.25-10.41,20.55
		c-11.08,15.06-21.35,31.01-32.43,46.07C1000.22,521.19,986.06,540.44,975.19,548.02z"/>
	<path style="fill:#B68E31;" d="M1133.26,731.74c5.1,9.1,7.9,19.44,11.68,29.12l1.69,1.72c0.92-0.32,1.97-0.44,2.9-0.76
		c10.35-4.5,20.03-8.29,31.21-10.22c2.5-0.5,21.69-3.15,23.47-4.32c0.4-0.26,0.66-0.72,1.06-0.98c-0.32-0.92-0.44-1.97-0.96-2.77
		c-1.17-1.78-16.6-8.09-20.25-11.08c-8.21-7.36-16.33-15.9-22.42-25.21c-1.55-2.38-2.64-5.34-4.2-7.72
		c-7.12-10.9-8.03-12.28-6.86-25.2c1.94-3.53,25.24-18.48,29.8-21.46c14.07-9.19,28.13-18.39,42.91-26.92
		c13-7.37,18.67-3.44,30.46-7.47c0.09-2.89,0.43-3.67-1.26-6.25c-5.96-9.11-12.97-17.25-18.93-26.36c-2.07-3.17-2.89-6.59-4.97-9.76
		c-1.81-2.77-4.22-5.16-6.76-6.89c-1.76-1.39-3.6-0.76-4.54,1.27c-1.34,3.14-2.02,5.56-5.46,8.94c-5.36,5.2-10.41,11.33-16.95,15.6
		c-15.65,10.23-30.85,21.58-46.5,31.81c-8.34,5.45-21.16,13.83-32.47,19.28c-4.18,5.53-10.26,13.21-15.27,17.11
		c-2.43,1.9-4.15,1.45-5.53,4.7c-0.63,1.48-0.96,3.09-1.4,4.7c7.21,8.82,14.43,17.67,20.72,27.3
		C1121.18,710.23,1127.32,720.92,1133.26,731.74z"/>
	<path style="fill:#B68E31;" d="M1352.88,855.65c-1.12-4.84-1.84-10.02-2.96-14.86c-1.55-6.69-4.43-12.82-5.98-19.51
		c-2.99-12.91-6.91-25.61-9.9-38.52c-0.37-1.61-0.75-3.23-0.66-4.95c-0.04-7.52-1.47-14.72-3.18-22.1
		c-0.43-1.84-1.72-3.24-3.78-3.74c-2.5,1.79-5.28,3.41-7.96,5.49c-17.57,13.3-69.18,26.48-92.01,31.77
		c-14.76,3.42-37.34,7.68-52.05,5.01c-1.26-0.19-2.52-0.39-3.9-0.07c-1.38,0.32-2.66,1.1-3.65,2.06c-0.48,1.08-0.44,2.29-0.17,3.44
		c2.19,9.45,6.35,17.96,9,27.31c1.3,4.56,2.65,9.35,3.77,14.19c1.87,8.07,3.28,16.25,5.84,24.16c2.03,5.6,3.59,11.31,4.93,17.08
		c2.08,8.99,2.78,18.31,4.87,27.3c0.64,2.77,2.27,4.57,4.85,5.19c10.71-2,21.69-2.84,32.76-2.25c5.16,0.26,10.27,0.29,15.45-0.42
		c0.71-1.14,1.13-2.45,0.81-3.83c-0.96-4.15-20.7-18.04-24.92-36.26c-3.9-16.83-11.97-34.88,10.86-40.17
		c2.54-0.59,5.18-0.71,7.52-0.04c4.92,4.45,9.07,9.8,10.57,16.26c2.19,9.45,0.02,18.95-0.9,28.63c1.47,1.12,3.07,1.72,4.91,1.29
		c4.15-0.96,8.1-6.98,12.21-9.15c6.84-4.02,14.22-8.88,22.29-10.75c2.31-0.53,5.53-1.28,4.79-4.51c-0.37-1.61-2.02-2.45-3.39-3.1
		c-6.19-3.67-10.69-9.43-14.26-15.4c0.81-10.15,0.15-15.1,11.9-17.82c14.76-3.42,18.37,6.92,24.73,17.59
		c1.23,2.15,1.99,4.4,2.52,6.7c1.01,4.38,0.36,8.9,0.92,13.39c1.31,14.03-2.65,27.34-5.35,40.84l2.26,2.39
		c3.46-0.8,6.7-2.53,9.66-4.43c11.03-6.93,21.17-12.44,33.19-17.17c1.1-0.5,1.91-1.17,2.73-1.85
		C1358.29,868.49,1354.48,862.56,1352.88,855.65z"/>
	<path style="fill:#B68E31;" d="M1087.11,666.36c-1.82,0.28-4.41,5.83-5.57,7.43c-1.49,2.05-7.21,6.14-3.68,8.17
		c3.14,1.82,7.22-5.6,8.37-7.92C1086.85,672.81,1090.28,665.87,1087.11,666.36z"/>
	<path style="fill:#B68E31;" d="M1074.81,641.34c2.47,1.71,7.69,7.08,9.98,7.76c0.47,0.13,0.9,0.21,1.38,0.16
		c1.18-1.21-4.22-7.22-5.27-8.2c-2.52-2.33-6.32-4.68-9.56-5.78c-1.27-0.45-8.09-2.73-6.48,0.34
		C1065.32,636.53,1073.08,640.14,1074.81,641.34z"/>
	<path style="fill:#B68E31;" d="M1068.43,649.43c0.11-0.6-0.13-2.77,0-2.9l5.12,0.68c1.22-1.24-4.42-4.82-5.36-5.39
		c-3.02-1.89-7.82-4.18-12.21-5.15c-1.6-0.35-3.14-0.53-4.51-0.45c-0.31,0.02-0.62,0.05-0.92,0.09c-0.72,0.1-1.51,0.55-2.08,0.99
		c-1.21,0.95-8.7,10.94-8.97,12.18c-0.88,4.22,5.74,4.43,8.73,5.46c2.17,0.77,8.44,4.16,10.12,3.87c1.18-0.21,0.84-1.38,1.44-1.75
		c0.64-0.41,1.76-0.21,2.52-0.47c0.68-0.23,1.07-0.98,1.59-1.14c1.73-0.53,2.94,0.88,4.55,0.45c0.98-0.65-0.65-2.44-0.88-3.24
		C1066.94,650.4,1068.19,650.62,1068.43,649.43z"/>
	<path style="fill:#B68E31;" d="M1034.58,665.85c-3.24,0.53-17.01,9.18-20.31,11.55c-2.66,1.93-7.15,5.22-7.7,8.57
		c-0.5,3.1,5.8,14.58,7.02,19.14c1.36,5.12,1.48,11.21,3.16,15.96c2.5,7.11,8.6,0.88,11.91-2.05c4.66-4.11,20.41-19.68,21.48-24.9
		c1.05-5.24-0.82-10.55-2.64-15.39C1045.39,673.14,1041.98,664.65,1034.58,665.85z"/>
	<path style="fill:#B68E31;" d="M1095.28,657.38c1.78,0.54,2.77-0.26,4.04-1.28c1.6-1.32,3.42-3.27,5.3-5.52
		c4.46-5.32,9.26-12.31,12.2-16.56c11.54-16.74,18.55-30.2,1.08-46.33c-9.11-8.43-28.24-20.72-41-19.17
		c-4.46,0.54-10.97,4.49-11.5,9.31c-0.51,4.66,2.7,1.49,3.97,1.22c2.67-0.57,1.18,4.79,3.17,6.25c0.6,0.43,1.78,0.43,2,1.07
		c0.34,0.97-0.26,2.32-0.31,3.35c-0.03,0.61,0.5,1.26,0.31,1.99c-0.05,0.21-0.94,1.35-1.82,2.37c-0.71,0.83-1.41,1.58-1.65,1.69
		c-1.11,0.54-5.64,1.24-6.72,0.77c-1.62-0.68-3.39-5.94-3.91-8.45c-0.06-0.3-0.11-0.58-0.14-0.79c-0.31-2.76,1.02-5.69-2.93-5.94
		c-1.96-0.13-3.8,0.45-5.5,1.51c-5.74,3.6-9.74,12.7-10.62,18.21c-0.98,6.08,0.65,14.41,3.35,19.98c0.43,0.9,4.66,8.3,5.7,5.1
		c1.07-3.24-2.13-7.35-3.27-10.26c-1.85-4.69-2.5-8.85-1.79-13.9c1.14-7.96,3.99-7.99,8.27-1.79c0.92,1.36,2.5,5.44,3.48,6.08
		s2.13-0.61,2.76,0.65c0.71,1.48-2.15,5.78-0.36,7.5c1.39,0.28,6.21-8.9,7.39-10.35c2.02-2.47,2.43-1.28,4.87-1.24
		c2,0.04,7.05,0.33,8.56-0.68c0.98-0.65,1.26-2.66,2.44-3.01c1.96-0.58,4.87,1.11,6.08,0.3c0.49-0.33,0.73-0.8,0.88-1.31
		c0.2-0.71,0.23-1.5,0.47-2.13c0.23-0.64,0.87-1.12,1.04-1.69c0.88-2.83-1.42-4.38-1.52-6.69c-0.07-1.46,0.94-2.87,0.58-4.66
		c-0.4-1.93-4.04-5.93-4.02-7.26c0.01-1.71,3.57-0.09,4.52,0.27c10.47,3.75,31.55,17.24,33.26,29.16c0.37,2.5-0.41,1.65-1.62,2.64
		c-1.76,1.48-0.78,6.82-1.79,9.12c-0.63,1.39-2.3,1.59-2.96,3.18c-0.7,1.75-0.43,3.94-1.22,5.94c-0.47,1.17-2.94,5.22-3.77,6.13
		c-1.36,1.45-3.68,1.56-4.93,3.25c-1.59,2.15-1.31,5.63-3.74,7.52c-1.21,0.92-2.39,0.87-3.44,1.68c-1.55,1.19-1.99,4.86-4.24,4.92
		c-0.74,0.01-1.8-0.84-2.4,0.38c-0.26,0.54-0.35,1.88-0.24,3.27C1093.75,655.09,1094.28,657.07,1095.28,657.38z"/>
	<path style="fill:#B68E31;" d="M1000.82,704.55c-1.82-4.65-4.32-10.79-10.28-9.74c-4.15,0.72-7.8,6.37-11.63,8.07
		c-4.28,1.93-14.34,0.75-16.17,5.27c-1.39,3.47,2.19,13.86,2.49,18.66c0.61,10.32-2.6,16.05-3.43,24.99
		c-0.33,3.5-0.71,6.84,3.95,5.13c5.67-2.08,22.57-23.48,27.54-29.25C1000.88,718.89,1006.07,717.89,1000.82,704.55z"/>
	<path style="fill:#B68E31;" d="M818.22,865.48c-5.06,1.17-7.7-3.14-10.19,3.14c-2.1,5.3-3.24,10.46-4.58,15.67
		c-1.39,5.38-3.01,10.81-6.16,16.47c-1.05,1.88-9.32,13-8.2,14.08c1.19,1.17,7.49-3.35,8.7-4.33c6.1-5.02,14.42-15.64,20.36-26.22
		c4.02-7.15,6.95-14.29,7.38-19.65C826.12,857.11,820.24,865.01,818.22,865.48z"/>
	<path style="fill:#B68E31;" d="M819.5,757.23c-2.8-7.36-2.57-9.71-7.85-16.47c-14.92-19.16-43.11-31.88-67.3-31.44
		c-11.44,0.21-25.8,4.46-35.82,9.96c-9.91,5.43-27.97,21.23-31.98,31.77c-1.89,5.02-3.28,8.77-5.39,13.74
		c-4.42,10.52-4.22,18.35-3.79,29.22c1.45,37.17,24.89,67.92,61.91,76.04c10.84,2.36,39.06,3.71,47.64-4.14
		c1.85-1.71,3.01-5.96,6.04-6.04c7.8-0.23,11.53-1.24,17.4-7.04c2.1-2.08,14.26-17.61,14.64-19.54c0.34-1.56-0.2-3.34,0.43-4.79
		c0.11-0.24,0.27-0.47,0.47-0.67c1.42-1.48,4.8-2.35,6.07-5.53c1.66-4.14,5.44-18.19,5.86-22.56c0.77-8.5,0.03-23.86-2.67-31.95
		C823.81,763.77,820.92,760.99,819.5,757.23z M817.68,814.62c-0.67,2.06-2.87,4.18-3.28,6.25c-0.4,1.98,0.33,4.43-0.44,6.11
		c-0.11,0.26-0.33,0.51-0.6,0.77c-1.21,1.11-3.64,2.26-4.72,3.45c-3.21,3.6-3.98,10.35-8.46,12.98c-1.71,0.99-3.81,1.07-5.56,2.19
		c-2.79,1.82-7.63,5.56-10.7,7.75c-1.58,1.14-3.37,3.95-4.95,4.59c-2.15,0.85-4.36,0.21-6.55,0.58c-7.43,1.29-14.21,5.73-22.74,4.58
		c-1.99-0.27-3.99-1.72-5.98-1.73c-2.16-0.01-4.59,1.26-7.13,1.21c-9.93-0.23-29.65-11.03-37.25-17.57
		c-13.84-11.92-20.67-24.69-24.84-42.47c-2.8-11.98-1.44-18.7,1.44-30.4c7.73-31.54,36.38-52.97,68.55-54.73l5.22-0.18
		c34.52-0.4,67.42,31.28,69.94,65.24C820.18,790.89,820.01,807.52,817.68,814.62z"/>
	<path style="fill:#B68E31;" d="M777.61,940.76c5.24-0.84,22.09-3.51,18.26-11.3c-4.97-2.53-12.81-0.97-13.46-8.26
		c-1.71-2.36-9.93,2.06-12.44,2.64c-6.64,1.55-13.86,0.53-20.62,0.82c-31.84,1.44-62.14,6.14-78.58-27.39
		c-0.91-1.86-3.81-8.72-4.22-13c-0.29-3.07,0.69-4.82,4.6-2.46c1.09,0.65,2.15,1.5,3.21,2.46c3.42,3.12,6.71,7.45,10.14,10.27
		c14.94,12.18,39.95,22.67,59.24,17.55c6.54-1.73,29.04-15.16,30.7-21.46c1.98-7.39-7.46-3.45-11.65-3.68
		c-2.1-0.11-6.05-1.02-8.04-1.81c-0.54-0.21-1.08-0.52-1.62-0.88c-1.51-0.99-2.93-2.29-3.75-2.45c-2.27-0.44-5.57,0.2-8.1-0.01
		c-24.83-2.22-45.62-11.98-62-30.7l-8.39-11.6c0.11,1.79,2.84,6.74-0.3,6.99c-4.56,0.34-13.29-11.07-16.5-14.26
		c-4.31-4.25-8.07-6.65-7.56,1.79c0.68,11.07,6.82,30.8,10.16,41.97c0.85,2.85,1.77,5.58,2.71,8.26
		c4.82,13.73,10.26,25.76,10.31,41.27c0.01,2.93-0.81,5.19,0.07,8.64c2.03,8.09,10.15,5.67,16.46,6.15
		C714.52,942.48,749.67,945.15,777.61,940.76z"/>
	<path style="fill:#B68E31;" d="M694.2,654.86c1.48,7.23,15.48,7.89,16.57,11.84c1.11,3.99-9.48,5.3-7.36,8.78
		c0.95,1.58,10.25,1.38,12.41,1.25c18.89-0.99,35.18-5.73,55.03-5.26c3.21,0.09,6.74,1.56,10.06-0.03c0.5-2.87-1.61-4.39-3.81-5.64
		c-8.04-4.48-17.81-4.79-26.21-10.29c-12.15-7.96-23.65-25.07-24.97-39.62c0.98-0.1,1.85,0.03,2.74,0.44
		c3.61,1.62,11.37,10.63,15.21,13.77c4.51,3.65,15.32,11.23,21.15,10.11c2.46-0.48,3.47-4.01,3.71-6.14
		c1.42-12.27,0.4-28.87-2.43-40.9c-1.31-5.66-4.41-11.17-3.79-17.17c3.95-2.47,9.07,7.38,12.71,4.87c1.98-1.36-2.42-9.86-3.41-11.73
		c-7.23-13.29-24.13-33.3-40.61-22.44c-17.03,11.21-27.5,60.43-32.11,80.3C697.58,633.44,693.02,649.16,694.2,654.86z"/>
	<path style="fill:#B68E31;" d="M899.47,743.33c5.36-0.85,1.04,9.69,0.11,12.32c-1.36,3.94-8.06,15.79-6.52,18.97
		c0.4,0.64,0.91,1.07,1.71,1.12c5.5,0.28,26.34-15.41,31.57-19.43c5.77-4.45,21.39-16.3,24.13-22.21c3.43-7.43-0.4-21.75-9.47-23.05
		c-9.3-1.36-22.23,1.01-32.32,0.45c-20.47-1.12-38.74-12.81-58.46-13.96c-6.95-0.41-13.87,1.17-20.81,0.53
		c-9.44-0.88-19.84-6.05-29.33-8.33c-37.69-9.01-88.52-7.72-125.58,3.62c-4.8,1.46-10.38,4.39-14.98,5.3
		c-6.79,1.34-15.8-0.5-23.12,0.03c-14.95,1.11-29.89,10.23-45.25,12.12c-13.53,1.66-27-1.11-40.51,0.06
		c-2.67,0.23-5.59,0.88-7.48,2.96c-5.71,6.23-3.85,23.76-5,32.05c-1.19,8.58-7.06-0.21-8.53-4.12c-3.54-9.62-2.57-16.3-1.86-25.95
		c1.21-16.46-12.02-0.2-16.77-2.3c-4.25-1.88,1.38-10.84-3.51-16.22c-8.09-8.93-14.43-0.87-18.05,6.84
		c-6.47,13.74-8.76,37.31-0.6,50.61c2.36,3.85,6.78,8.98,11.71,8.3c0.37-4.82-4.06-8.5-3.5-13.33c3.33-0.5,6.01,1.59,8.64,3.24
		c6.08,3.79,11.85,8.74,18.08,12.65c7.73,4.86,31,18.35,39.08,19.4c5.86,0.78,5.53-1.01,4.01-5.73c-1.53-4.82-4.97-9.44-6.48-14.37
		c-2.26-7.4-1.75-11.84,6.4-6.4c7.39,4.95,22.46,21.29,30.37,22.37c2.47,0.34,3.78-0.3,3.6-2.98c-0.31-4.86-5.74-14.81-7.33-20.52
		c-0.71-2.54-4.55-15.25,0.1-15.19c3.08,0.04,12.85,15.45,15.65,18.56c1.9,2.1,6.68,7.63,9.61,4.36c2.97-3.33-0.75-20.21,2.9-25.2
		c0.61-0.17,1.18-0.07,1.71,0.24c2.64,1.51,10.26,28.61,12.15,33.63c6.84,18.18,17.64,33.74,26.66,50.68
		c1.05,0.13,0.53-1.26,0.44-1.88c-0.57-3.45-2.7-6.82-3.54-10.38c-1.99-8.56-1.46-17.68-2.1-26.29
		c-0.88-11.73,6.37-27.27,10.39-38.25c6.23-16.96,32.31-36.58,48.98-42.57c28.7-10.3,53.78-4.86,79.68,8.98
		c8.77,4.68,23.42,19.23,28.27,27.93c3.71,6.65,4.68,14.3,9.39,20.72l4.04,18.85c5.8-11.64,13.37-22.43,19.8-33.78
		c1.83-3.23,7.4-16.71,10.66-17.21c3.48-0.53,3.62,5.07,3.77,7.8c0.16,3.68-0.3,9.01-0.61,12.78c-0.55,6.58-3.25,14.08-1.19,20.32
		c3.5,2.5,12.44-8.61,14.51-11.07C887.22,757.38,896.43,743.82,899.47,743.33z"/>
	<path style="fill:#B68E31;" d="M481.27,678.32c-3.84-2.77-19.95-12.52-23.88-12.54c-1.39-0.01-4.25,1.51-5.3,2.44
		c-7.85,6.86-15.22,42.98-16.83,54.15c-0.5,3.48-1.41,8.44-0.64,11.85c0.84,3.68,13.42,10.94,17.08,13.06
		c3.64,2.08,13.93,8.29,17.71,7.55c4.6-0.92,2.74-8.84,2.73-11.77c-0.14-17.01,2.08-31.51,9.18-47.06
		C485,687.97,490.99,685.32,481.27,678.32z"/>
	<path style="fill:#B68E31;" d="M406.44,596.13c0.75,1.65,0.84,2.02,1.44,3.68c0.91,2.53,5.02,0.81,7.11,1.42
		c0.24,0.07,0.44,0.22,0.62,0.4c0.61,0.62,0.92,1.73,1.48,2.27c2.53,2.39,8.24-0.14,11.43,0.85c2.66,1.11,10.84,22.37,8.88,4.25
		c4.59,0.84,4.29-2.81,6.13-5.64c1.15-1.75,2.89-3.08,3.91-4.95c4.05-2.44,5.06,8.07,4.97,10.4c-0.23,6.05-6.05,14.17-5.83,18.43
		c0.03,0.69,0.17,1.14,0.38,1.41c0.54,0.72,1.57,0.12,2.52-0.79c0.71-0.69,1.38-1.55,1.74-2.15c5.34-8.74,6.36-27.85-1.03-36.96
		c-2.13-2.63-4.97-4.44-8.61-4.91c-6.14-0.78-4.2,3.69-4.63,7.71c-0.05,0.52-0.15,1.03-0.3,1.52c-0.26,0.75-3.14,5.47-3.65,5.9
		c-0.99,0.82-5.54-0.65-6.64-1.26c-1.22-0.7-2.35-3.2-3.92-3.94c-0.36-1.08,0.91-2.06,0.97-3.03c0.01-0.12-0.01-0.25-0.03-0.37
		c-0.11-0.63-0.48-1.28-0.26-1.95c0.27-0.82,2.09-0.72,2.83-1.96c0.91-1.52,0.53-4.05,1.55-5.63c0.81-0.57,3.38,2.53,4.82,0.74
		c1.76-2.16-3.37-7.92-5.24-9.14c-12.14-7.83-36.55,6.62-46.11,14.75c-7.18,6.1-10.82,12.18-11.78,18.48
		c-1.29,8.36,2.16,17.11,8.39,26.85c2.9,4.53,17,24.16,20.64,26.09c4.33,2.29,4.29-4.8,3.2-7.29c-0.77-0.97-2.12-0.43-3.08-1.01
		c-1.18-0.71-1.15-3.71-3.24-4.95c-0.8-0.47-1.79-0.5-2.69-1.07c-3.34-2.13-2.1-7.29-4.8-9.18c-1.36-0.95-2.42-0.65-3.88-2.26
		c-3.27-3.58-3.3-6.01-3.98-10.35c-0.41-2.73-3.33-2.71-3.91-4.62c-0.55-1.79,0.16-4.24-0.3-6.18c-0.54-2.22-2.98-2.19-2.96-5.26
		c0-0.23,0.01-0.44,0.04-0.68c0.84-7.05,13.36-16.87,18.77-20.44c3.03-1.99,16.69-9.92,19.57-9.42c3,0.53-2.57,6.08-3,7.58
		c-0.61,2.16,0.04,4.72-0.26,6.91C407.39,592.52,405.4,593.89,406.44,596.13z"/>
	<path style="fill:#B68E31;" d="M429.83,638.1c0.23-0.8-0.04-1.2-0.53-1.38c-0.69-0.26-1.81-0.09-2.57,0.01
		c-1.45,0.19-3.52,1-5.7,2.13c-4.54,2.36-9.59,6.18-10.77,9.02c-0.44,1.05-1.22,3.21,0.67,3.08c1.61-0.11,7.96-5.97,9.84-7.25
		C422.48,642.55,429.45,639.44,429.83,638.1z"/>
	<path style="fill:#B68E31;" d="M431.38,657.2c0.81,0.09,1.22,1.02,1.82,1.19c0.94,0.27,2.19-0.16,2.96,0.11
		c1.09,0.41-0.06,2.52,2.76,2.36c2.13-0.13,7.29-3.06,9.81-3.87c2.19-0.72,7.94-0.7,7.76-3.78c-0.09-1.58-5.78-9.79-7.13-11.31
		c-2.66-2.94-3.84-3.57-7.93-3.13c-3.5,0.37-8.74,2.52-11.87,4.16c-1.45,0.75-8.31,4.8-7.85,6.48c1.12,1.56,4.69-1.86,5.66-0.53
		c0.31,0.44-0.4,2.25-0.2,3.24c0.28,1.42,1.88,1.89,0.33,4.43C428.1,658.91,430.16,657.06,431.38,657.2z"/>
	<path style="fill:#B68E31;" d="M414.84,677.01c-0.18-0.19-0.34-0.36-0.44-0.49c-1.09-1.44-4.06-8.16-5.76-7.77
		c-2.98,0.67,0.26,6.52,1.07,8.03c0.49,0.91,1.51,2.68,2.73,4.24c1.49,1.9,3.27,3.48,4.75,2.8
		C420.59,682.21,416.47,678.71,414.84,677.01z"/>
	<path style="fill:#B68E31;" d="M803.25,786.88c-2.84-2.58-6.74-6.1-5.39-12.69c0.28-1.39,1.04-3.02,1.92-4.91
		c0.85-1.84,2.85-6.15,2.39-7.24c-0.19-0.09-0.32-0.1-0.4-0.1c-0.78,0-2.12,1.06-3.2,1.91c-0.98,0.77-1.99,1.57-3.12,2.13
		c-2.93,1.46-5.5,2.17-7.86,2.17c-4.79,0-7.73-2.9-10.33-5.46c-1.53-1.51-3.12-3.07-5.13-4.16c-0.97-0.53-1.58-0.71-1.91-0.78
		c-0.55,1.55-0.03,6.22,0.26,8.81c0.45,4.06,0.85,7.56-0.1,9.88c-1.41,3.51-5.5,5.81-9.46,8.04c-1.84,1.04-4.92,2.78-5.35,3.57
		c-0.14,0.47-0.12,0.72-0.09,0.76c0.86,1.23,6.38,1.58,8.74,1.74c2,0.13,3.72,0.24,5.07,0.56c7.45,1.76,8.52,8.2,9.3,12.9
		c0.45,2.69,0.87,5.24,2.2,6.33c0.14,0.11,0.24,0.18,0.31,0.22c1.28-0.71,3.2-5.29,3.93-7.04c0.68-1.62,1.22-2.9,1.83-3.84
		c0.64-0.96,2.96-3.68,4.58-4.6c2.15-1.2,4.72-1.37,6.96-1.37c0.7,0,1.41,0.02,2.12,0.03c0.65,0.02,1.3,0.03,1.94,0.03
		c2.6,0,3.48-0.35,3.76-0.64c0.24-0.25,0.35-0.92,0.3-1.8C806.42,789.82,805.21,788.66,803.25,786.88z"/>
	<path style="fill:#B68E31;" d="M756.35,824.96c-4.66-1.4-11.04-3.32-11.76-9.57c-0.14-1.2-0.09-2.79-0.03-4.8
		c0.07-2.38,0.28-9.61-0.97-10.67c-1.33,0-3.56,3.08-5.19,5.33c-2.98,4.12-6.36,8.78-11.74,8.81c-1.84,0-3.86-0.62-6-1.28
		c-2.01-0.62-4.1-1.26-5.67-1.26c-1.03,0-1.33,0.29-1.42,0.37c-0.93,0.89,1.83,5.36,3.15,7.5c2,3.24,3.73,6.03,3.67,8.75
		c-0.05,2.79-2.08,5.31-4.22,7.99c-1.86,2.32-3.97,4.95-4.08,6.98c-0.04,0.82,0.05,1.23,0.1,1.41c0.08,0.01,0.21,0.03,0.4,0.03
		c1.51,0,4-0.9,5.99-1.62c1.7-0.61,3.3-1.19,4.67-1.41c0.72-0.11,1.44-0.17,2.12-0.17c6.77,0,9.99,5.37,12.59,9.68
		c1.22,2.03,2.37,3.95,3.73,5.19c0.46,0.42,0.81,0.57,0.96,0.61c0.88-1.16,0.96-6.36,1-8.88c0.05-2.98,0.08-5.55,0.61-7.45
		c1.63-6.02,7.63-8.03,12.46-9.63c2.25-0.75,5.64-1.88,5.67-2.86C762.4,826.87,759.78,825.99,756.35,824.96z"/>
	<path style="fill:#B68E31;" d="M721.67,777.27c0.18-0.01,0.37-0.02,0.55-0.02c3.47,0,6.72,2.17,9.87,4.27
		c2.35,1.57,5.01,3.34,6.75,3.34c0.31,0,0.57-0.06,0.86-0.17c0.54-1.21-1.72-6.02-2.81-8.33c-1.82-3.87-3.39-7.22-2.86-9.99
		c0.61-3.24,3.55-6.27,6.66-9.48c1.68-1.73,4.71-4.85,5.06-6.18c-0.33-0.1-1.01-0.24-2.32-0.24c-1.5,0-3.32,0.18-5.08,0.35
		c-1.87,0.18-3.8,0.37-5.54,0.37c0,0,0,0,0,0c-2.34,0-4.04-0.35-5.35-1.1c-2.93-1.68-4.38-5.38-5.91-9.3c-1.02-2.62-2.74-7-4.16-7
		c-0.07,0-0.16,0.01-0.24,0.02c-0.85,1.21-1.52,5.8-1.89,8.32c-0.64,4.37-1.19,8.14-2.88,10.28c-2.39,2.99-6.99,2.99-11.43,2.99
		c-2.11,0-6.04,0-6.73,0.68c-0.39,2.03,1.47,3.49,5.78,6c1.69,0.98,3.28,1.91,4.52,3.04c4.06,3.68,2.89,9.93,1.86,15.44
		c-0.39,2.11-1.04,5.57-0.68,6.67c0.16,0.04,0.31,0.06,0.47,0.06c1.89,0,4.48-2.45,6.76-4.61
		C715.76,780.02,718.42,777.5,721.67,777.27z"/>
</g>
</svg>
